<?xml version="1.0" encoding="UTF-8"?>
<svg id="Layer_2" data-name="Layer 2" xmlns="http://www.w3.org/2000/svg" viewBox="0 0 305.5 672.08">
  <defs>
    <style>
      .cls-1 {
        fill: #276379;
      }

      .cls-2 {
        fill: #161e2b;
      }

      .cls-3 {
        fill: #a0a8af;
      }

      .cls-4 {
        fill: none;
        stroke: #b9c1c6;
        stroke-miterlimit: 10;
        stroke-width: 3px;
      }

      .cls-5 {
        fill: #327f93;
      }

      .cls-6 {
        fill: #737782;
      }

      .cls-7 {
        fill: #2f405c;
      }

      .cls-8 {
        fill: #233044;
      }
    </style>
  </defs>
  <g id="Layer_4" data-name="Layer 4">
    <g>
      <path class="cls-6" d="M282.15,59.42h.31v119.17h-.31c-3.07,0-5.57-2.5-5.57-5.57v-108.02c0-3.07,2.5-5.57,5.57-5.57Z" transform="translate(559.04 238) rotate(-180)"/>
      <path class="cls-6" d="M282.15,492.92h.31v119.17h-.31c-3.07,0-5.57-2.5-5.57-5.57v-108.02c0-3.07,2.5-5.57,5.57-5.57Z" transform="translate(559.04 1105) rotate(-180)"/>
      <path class="cls-7" d="M266.39,24.02s2.58-13.63-16.16-19.4C231.49-1.14,213.08.12,152.31.12v16.64l114.08,7.26Z"/>
      <path class="cls-3" d="M152.31,11c88.45,0,124.27-.42,124.27,20.58v625.93c0,8.05-6.89,14.57-15.39,14.57h-108.88V11Z"/>
      <line class="cls-4" x1="248.6" y1="184.75" x2="247.1" y2="18.08"/>
      <path class="cls-6" d="M259.62,32.25c6.34,12.75,1.65,157.5,1.65,157.5l-25,40.25s10.82,1.75,10.82,9v406.41h-94.78v26.67h108.88c8.49,0,15.38-6.52,15.38-14.57V31.58c0-21-35.81-20.58-124.26-20.58v8.25c79.85,0,100.97.25,107.31,13Z"/>
      <polygon class="cls-7" points="268.48 204.25 247.1 239 247.1 352.75 268.48 352.75 268.48 204.25"/>
      <path class="cls-8" d="M268.48,367.12v283.64c0,5.42-4.64,9.82-10.37,9.82h-105.8v-293.46h116.17Z"/>
      <path class="cls-2" d="M248.8,367.12h19.69v293.46h-29.45v-283.69c0-5.39,4.38-9.76,9.76-9.76Z" transform="translate(507.51 1027.71) rotate(180)"/>
      <path class="cls-2" d="M218.68,630.42l49.81-11.48-29.43-114.83s-14.91,1.02-21.21,5.98c-6.3,4.96-6.92,10.17-6.92,15.67v97.33c0,4.05,3.47,7.33,7.74,7.33Z"/>
      <path class="cls-7" d="M239.03,492.92h22.12c4.05,0,7.33,3.29,7.33,7.33v104.5c0,4.05-3.29,7.33-7.33,7.33h-22.12v-119.17h0Z" transform="translate(507.51 1105) rotate(180)"/>
      <rect class="cls-8" x="257.79" y="492.92" width="10.69" height="119.17" transform="translate(526.27 1105) rotate(180)"/>
      <rect class="cls-2" x="215.44" y="391.62" width="11.62" height="248.62" rx="5.5" ry="5.5" transform="translate(442.51 1031.87) rotate(180)"/>
      <rect class="cls-2" x="171.79" y="391.62" width="11.62" height="248.62" rx="5.5" ry="5.5" transform="translate(355.2 1031.87) rotate(180)"/>
      <rect class="cls-6" x="247.1" y="311.75" width="21.39" height="8.25"/>
      <path class="cls-7" d="M152.31,160.41c86.53,0,112.8,22.09,108.96,29.34-3.84,7.25-25,40.25-25,40.25,0,0-34.85-3.08-83.96-3.08v-66.51Z"/>
      <path class="cls-1" d="M152.31,172.91c65.54,0,105.3,14.37,101.59,19.8-3.71,5.43-20.48,32.24-20.48,32.24,0,0-33.67-2.31-81.1-2.31v-49.74Z"/>
      <path class="cls-7" d="M265.74,17.57c.38,2-.06,6.16-4.28,5.91-4.22-.25-9.17-1.89-17.84-3.5s-14.82-2.29-17.33-3-3.64-1.99-3.68-5.36c0,0,29.92.21,43.13,5.95Z"/>
      <path class="cls-6" d="M27.73,59.42h.31v119.17h-.31c-3.07,0-5.57-2.5-5.57-5.57v-108.02c0-3.07,2.5-5.57,5.57-5.57Z"/>
      <path class="cls-6" d="M27.73,492.92h.31v119.17h-.31c-3.07,0-5.57-2.5-5.57-5.57v-108.02c0-3.07,2.5-5.57,5.57-5.57Z"/>
      <path class="cls-8" d="M38.23,24.02s-2.58-13.63,16.16-19.4C73.13-1.14,91.54.12,152.31.12v16.64l-114.08,7.26Z"/>
      <path class="cls-3" d="M152.31,11c-88.45,0-124.27-.42-124.27,20.58v625.93c0,8.05,6.89,14.57,15.39,14.57h108.88V11Z"/>
      <line class="cls-4" x1="56.02" y1="184.75" x2="57.53" y2="18.08"/>
      <path class="cls-6" d="M45,32.25c-6.34,12.75-1.65,157.5-1.65,157.5l25,40.25s-10.82,1.75-10.82,9v406.41h94.78v26.67H43.43c-8.49,0-15.38-6.52-15.38-14.57V31.58c0-21,35.81-20.58,124.26-20.58v8.25c-79.85,0-100.97.25-107.31,13Z"/>
      <polygon class="cls-8" points="36.14 204.25 57.53 239 57.53 352.75 36.14 352.75 36.14 204.25"/>
      <path class="cls-8" d="M36.14,367.12v283.64c0,5.42,4.64,9.82,10.37,9.82h107.3v-293.46H36.14Z"/>
      <path class="cls-2" d="M36.14,367.12h10.69v293.46h-.93c-5.39,0-9.76-4.38-9.76-9.76v-283.69h0Z"/>
      <polygon class="cls-2" points="268.48 419.58 36.14 445.75 36.14 367.12 268.48 367.12 268.48 419.58"/>
      <path class="cls-7" d="M36.14,492.92h22.12c4.05,0,7.33,3.29,7.33,7.33v104.5c0,4.05-3.29,7.33-7.33,7.33h-22.12v-119.17h0Z"/>
      <rect class="cls-8" x="36.14" y="492.92" width="5.35" height="119.17" transform="translate(77.63 1105) rotate(180)"/>
      <rect class="cls-2" x="77.56" y="391.62" width="11.62" height="248.62" rx="5.5" ry="5.5"/>
      <rect class="cls-2" x="121.21" y="391.62" width="11.62" height="248.62" rx="5.5" ry="5.5"/>
      <rect class="cls-6" x="36.14" y="311.75" width="21.39" height="8.25" transform="translate(93.67 631.75) rotate(180)"/>
      <path class="cls-8" d="M152.31,160.41c-86.53,0-112.8,22.09-108.96,29.34,3.84,7.25,25,40.25,25,40.25,0,0,34.85-3.08,83.96-3.08v-66.51Z"/>
      <path class="cls-7" d="M152.31,172.91c-65.54,0-105.3,14.37-101.58,19.8,3.71,5.43,20.48,32.24,20.48,32.24,0,0,33.67-2.31,81.1-2.31v-49.74Z"/>
      <path class="cls-8" d="M38.88,17.57c-.38,2,.06,6.16,4.28,5.91,4.22-.25,9.17-1.89,17.84-3.5s14.82-2.29,17.33-3,3.64-1.99,3.68-5.36c0,0-29.92.21-43.13,5.95Z"/>
      <path class="cls-6" d="M100.61,60.75v71.36c0,4.44,3.6,8.05,8.05,8.05h43.65v-6.74h-41.94c-1.93,0-3.54-1.47-3.7-3.39l-6.06-69.27Z"/>
      <path class="cls-6" d="M204.01,60.75v71.36c0,4.44-3.6,8.05-8.05,8.05h-43.65v-6.74h41.94c1.93,0,3.54-1.47,3.7-3.39l6.06-69.27Z"/>
      <path class="cls-5" d="M159.28,177.53c-4.79,3.11-3.17,17.11-.26,20.49,2.91,3.38,9.56,5.04,16.94,2.06,7.38-2.99,9.61-10.88,19.19-9.87,9.57,1.01,9.95,3.73,18.54,5.79s14.83-2.68,20.27.58c5.44,3.26-1.91,13.94.13,15.31s5.87-3.64,8.78-8.44c2.79-4.6,5.37-9.39,4.57-10.89-1.64-3.05-15.33-9.33-36.98-12.65-21.65-3.32-46.39-5.49-51.19-2.39Z"/>
      <rect class="cls-6" x="57.53" y="352.75" width="189.62" height="14.38"/>
      <path class="cls-6" d="M31.31,200.08c-7.17,1.33-24.33,2-28.5,9-4.17,7-3,13-1,13.33,2,.33,28.33-4.67,29.5-8.17,1.17-3.5,0-14.17,0-14.17Z"/>
      <path class="cls-6" d="M274.19,200.08c7.17,1.33,24.33,2,28.5,9,4.17,7,3,13,1,13.33-2,.33-28.33-4.67-29.5-8.17-1.17-3.5,0-14.17,0-14.17Z"/>
    </g>
  </g>
</svg>