<?xml version="1.0" encoding="UTF-8"?>
<svg id="Layer_2" data-name="Layer 2" xmlns="http://www.w3.org/2000/svg" viewBox="0 0 282.38 620.21">
  <defs>
    <style>
      .cls-1 {
        fill: #d90042;
      }

      .cls-2 {
        fill: #e8e9ea;
      }

      .cls-3 {
        fill: #276379;
      }

      .cls-4 {
        fill: #fb4b54;
      }

      .cls-5 {
        fill: #327f93;
      }

      .cls-6 {
        fill: #1b2635;
      }

      .cls-7 {
        fill: #3b8ae0;
      }

      .cls-8 {
        fill: #0f161e;
      }

      .cls-9 {
        fill: #cdcfd1;
      }

      .cls-10 {
        fill: #2f405c;
      }

      .cls-11 {
        fill: #5fc2ff;
      }

      .cls-12 {
        fill: #233044;
      }
    </style>
  </defs>
  <g id="Layer_6" data-name="Layer 6">
    <g>
      <path class="cls-6" d="M141.19,0c-52.47,0-60.55,7.95-64.58,14.11,0,0-31.75,9.24-41.71,21.55-9.96,12.32-15.61,26.43-18.3,56.2-2.69,29.77,3.23,60.56,3.23,83.91s-3.93,89.56-3.93,159.86,1.99,88.53,0,98.54c-1.99,10.01-1.97,39.52-.63,68.51s4.56,34.13,7.78,51.06c3.23,16.94,4.31,31.56,13.19,41.06s41.98,25.4,104.95,25.4V0Z"/>
      <path class="cls-6" d="M141.19,0c52.47,0,60.55,7.95,64.58,14.11,0,0,31.75,9.24,41.71,21.55,9.96,12.32,11.98,26.43,14.67,56.2,2.69,29.77.4,60.56.4,83.91s3.93,89.56,3.93,159.86-1.99,88.53,0,98.54c1.99,10.01,2.02,39,.67,68-1.35,29-4.6,34.64-7.83,51.58-3.23,16.94-4.31,31.56-13.19,41.06-8.88,9.49-41.98,25.4-104.95,25.4V0Z"/>
      <g>
        <path class="cls-2" d="M210.74,124.69h-9.41c-6.12,0-10.6-3.21-10.6-8.88s4.48-8.69,10.6-8.69h4.06v-12.45h5.35v30.02ZM201.33,112.16c-3.7,0-5.25,1.27-5.25,3.65s1.59,3.85,5.25,3.85h4.06v-7.5h-4.06Z"/>
        <path class="cls-2" d="M188.07,109.69c0,8.18-4.57,15.45-14.49,15.45s-14.49-7.27-14.49-15.45,4.57-15.45,14.49-15.45,14.49,7.27,14.49,15.45ZM164.78,109.69c0,5.65,2.36,10.64,8.8,10.64s8.8-4.99,8.8-10.64-2.36-10.67-8.8-10.67-8.8,4.99-8.8,10.67Z"/>
        <path class="cls-2" d="M153.48,124.69h-5.4v-24.92h-12.83v-5.1h18.23v30.02Z"/>
        <path class="cls-2" d="M130.9,124.69h-5.4v-30.02h5.4v30.02Z"/>
        <path class="cls-2" d="M119.89,109.69c0,8.22-4.61,15.49-14.49,15.49-5.95,0-10.71-3.02-13.13-8.63l5.04-2c1.13,3.95,4.23,5.48,8.14,5.48,6.35,0,9.09-4.57,9.09-10.13,0-5.97-2.74-10.54-9.18-10.54-3.87,0-6.52,1.53-8.14,5.57l-4.99-2.04c2.38-5.61,7.16-8.65,13.13-8.65,9.88,0,14.53,7.2,14.53,15.45Z"/>
        <path class="cls-2" d="M87.34,124.69h-19.97v-4.95h14.57v-7.58h-13.58v-4.95h13.58v-7.44h-14.57v-5.1h19.97v30.02Z"/>
      </g>
      <path class="cls-2" d="M234.61,279.98c0-16.57-20.39-23.81-20.39-23.81l-73.04,3-73.04-3s-20.39,7.24-20.39,23.81c0,0-6.92,169.75-6.14,194.74,19.59,2.97,30.35,2.83,30.35,2.83l46.51,10.6,22.7-7.44,22.7,7.44,46.51-10.6s10.76.14,30.35-2.83c.78-24.99-6.14-194.74-6.14-194.74Z"/>
      <polygon class="cls-9" points="65.75 296.94 47.55 312.33 47.55 346 193.64 346 218.36 325.88 206.94 306.53 65.75 296.94"/>
      <path class="cls-8" d="M35.97,54.91c-9.96,21.81-3.5,47.47-2.69,83.65.81,36.18,2.69,47.22,2.69,47.22,0,0,15.02,48.1,21.15,81.39-9.18,2.98-9.36,12.81-9.36,12.81,0,0-1.06-10.51-6.09-33.74s-12.7-45.32-12.7-45.32l12.65,273.8s-1.35,91.26,3.23,103.58,46.28,25.15,96.34,25.15v16.77c-62.97,0-96.07-15.91-104.95-25.4s-9.96-24.12-13.19-41.06c-3.23-16.94-6.44-22.07-7.78-51.06-1.35-29-1.36-58.51.63-68.51,1.98-10.01,0-28.23,0-98.54s3.93-136.51,3.93-159.86-5.92-54.14-3.23-83.91c2.69-29.77,8.34-43.88,18.3-56.2,9.96-12.32,41.71-21.55,41.71-21.55,4.04-6.16,12.11-14.11,64.58-14.11v11.8c-37.94,0-53.01,4.88-58.66,8.21-5.65,3.34-36.6,13.09-46.55,34.9Z"/>
      <path class="cls-9" d="M41.62,474.72l-27.28-14.28c.1-11.84.59-21.38,1.56-26.27,1.98-10.01,0-28.23,0-98.54,0-55.66,2.46-108.75,3.49-140.03l16.58-9.82s0,.05.04.14l21.11,81.24s-9.77,8.64-9.36,12.82c3.57,36.2-6.14,194.74-6.14,194.74Z"/>
      <path class="cls-8" d="M237.09,52.86c5.96,16.67,10.12,49.78,9.31,85.96-.81,36.18,0,46.96,0,46.96,0,0-15.02,48.1-21.15,81.39,9.18,2.98,9.36,12.81,9.36,12.81,0,0,1.06-10.51,6.09-33.74,5.03-23.23,12.7-45.32,12.7-45.32l-12.65,273.8s1.35,91.26-3.23,103.58c-4.57,12.32-46.28,25.15-96.34,25.15v16.77c62.97,0,96.07-15.91,104.95-25.4,8.88-9.49,9.96-24.12,13.19-41.06,3.23-16.94,6.49-22.58,7.83-51.58,1.35-29,1.32-57.99-.67-68-1.98-10.01,0-28.23,0-98.54s-3.93-136.51-3.93-159.86,2.29-54.14-.4-83.91c-2.69-29.77-4.72-43.88-14.67-56.2-9.96-12.32-41.71-21.55-41.71-21.55-4.04-6.16-12.11-14.11-64.58-14.11v11.8c37.94,0,53.01,4.88,58.66,8.21,5.65,3.34,31.28,16.18,37.25,32.84Z"/>
      <path class="cls-9" d="M240.76,474.72l27.28-14.28c-.1-11.84-.59-21.38-1.56-26.27-1.98-10.01,0-28.23,0-98.54,0-55.66-2.46-108.75-3.49-140.03l-16.58-9.82s0,.05-.04.14l-21.11,81.24s9.77,8.64,9.36,12.82c-3.57,36.2,6.14,194.74,6.14,194.74Z"/>
      <path class="cls-12" d="M141.19,157.04c-59.2,0-105.22,28.74-105.22,28.74,0,0,15.4,50.04,21.15,81.39,0,0,38.59-8,84.06-8v-102.13Z"/>
      <path class="cls-12" d="M141.19,480.71c-30.53,0-56.75-2.01-69.21-3.16-4.16-.38-7.75,2.73-7.75,6.72v41.59c0,15.61,12.18,28.78,28.42,30.74,12.58,1.52,28.99,2.8,48.54,2.8v-78.69Z"/>
      <path class="cls-10" d="M28.97,200.92s15.34,45.16,18.84,80.83c3.5,35.67,4.04,62.61,3.23,95.71s-9.42,97.25-9.42,97.25c0,0-10.76-54.4-12.65-128.82-1.88-74.42,0-144.98,0-144.98Z"/>
      <polygon class="cls-9" points="51.37 339.67 21.62 341.75 21.62 353.94 51.37 350.18 51.37 339.67"/>
      <path class="cls-3" d="M55.51,36.62c-17.39,5.9-32.4,20.35-32.4,20.35,2.98-8.66,6.86-15.2,11.79-21.3,9.96-12.32,41.71-21.55,41.71-21.55-6.24,9.56-3.71,16.6-21.1,22.51Z"/>
      <path class="cls-3" d="M57.77,607.43c-11.02-4.31-18.09-8.94-21.53-12.61-6.95-7.44-9.13-18.02-11.29-30.4,0,0,4.56,2.63,6.31,8.4,1.74,5.77,4.37,10.21,11.23,15.72,6.86,5.5,17.83,5.32,15.28,18.9Z"/>
      <path class="cls-10" d="M141.19,157.04c59.2,0,105.22,28.74,105.22,28.74,0,0-15.4,50.04-21.15,81.39,0,0-38.59-8-84.06-8v-102.13Z"/>
      <path class="cls-10" d="M141.19,173.58c-54.98,0-95.91,21.36-95.91,21.36,0,0,12.06,41.76,17.4,66.03,0,0,36.27-6.78,78.51-6.78v-80.62Z"/>
      <path class="cls-3" d="M141.18,173.58c54.98,0,95.91,21.36,95.91,21.36,0,0-12.06,41.76-17.4,66.03,0,0-36.27-6.78-78.51-6.78v-80.62Z"/>
      <path class="cls-10" d="M141.19,480.71c30.53,0,56.75-2.01,69.21-3.16,4.16-.38,7.75,2.73,7.75,6.72v41.59c0,15.61-12.18,28.78-28.42,30.74-12.58,1.52-28.99,2.8-48.54,2.8v-78.69Z"/>
      <path class="cls-10" d="M141.19,494c-28.23,0-52.48-1.3-64.01-2.05-3.84-.25-7.17,1.77-7.17,4.35v26.94c0,10.11,11.26,18.64,26.29,19.91,11.63.98,26.81,1.81,44.89,1.81v-50.97Z"/>
      <path class="cls-3" d="M141.19,494c28.23,0,52.48-1.3,64.01-2.05,3.84-.25,7.17,1.77,7.17,4.35v26.94c0,10.11-11.26,18.64-26.29,19.91-11.63.98-26.81,1.81-44.89,1.81v-50.97Z"/>
      <path class="cls-3" d="M253.4,200.92s-15.34,45.16-18.84,80.83c-3.5,35.67-4.04,62.61-3.23,95.71s9.42,97.25,9.42,97.25c0,0,10.76-54.4,12.65-128.82,1.88-74.42,0-144.98,0-144.98Z"/>
      <polygon class="cls-9" points="230.95 339.67 260.69 341.75 260.69 353.94 230.95 350.18 230.95 339.67"/>
      <path class="cls-5" d="M226.86,36.62c17.39,5.9,30.68,20.6,30.68,20.6-2.2-9.46-5.14-15.46-10.07-21.55-9.96-12.32-41.71-21.55-41.71-21.55,6.24,9.56,3.71,16.6,21.1,22.51Z"/>
      <path class="cls-5" d="M224.6,607.43c11.02-4.31,18.09-8.94,21.53-12.61,6.95-7.44,9.13-18.02,11.29-30.4,0,0-4.56,2.63-6.31,8.4-1.74,5.77-4.37,10.21-11.23,15.72-6.86,5.5-17.83,5.32-15.28,18.9Z"/>
      <path class="cls-5" d="M145.92,517.58c-1.52,5.26-1.78,18.67,2.09,21.75,3.87,3.08,43.37,1.67,52.75-5.26,9.37-6.93,8.98-22.3,5.81-22.32s-1.76,8.68-8.37,10.65c-6.62,1.97-9.06.56-14.71-.64-5.65-1.2-9.44.58-14.34.5-4.91-.08-8.29-2.28-11.2-6.47s-10.5-3.46-12.02,1.8Z"/>
      <path class="cls-5" d="M148.2,180.46c-4.56,4.2-3.24,22.8-.55,27.24,2.69,4.45,8.92,6.56,15.92,2.48,7-4.08,8.25-13.51,17.25-12.32,9,1.2,10.28,3.71,18.33,6.33,8.05,2.62,15.93-1.52,21,2.74,5.07,4.25-2.5,23.24,1.08,24.24,3.58,1,10.88-27.66,9.38-31.69-1.5-4.03-14.37-10.05-34.73-15.3-20.36-5.25-43.13-7.92-47.69-3.72Z"/>
      <path class="cls-9" d="M28.98,200.92l-9.62,3.79s-8.22,1.79-14.65,8.26c-6.43,6.48-5.36,16.82-2.2,18.11,3.16,1.29,20.42-11.66,21.37-14.42.95-2.76,4.87-5.8,4.87-5.8l.23-9.95Z"/>
      <path class="cls-9" d="M253.4,200.92l9.62,3.79s8.22,1.79,14.65,8.26c6.43,6.48,5.36,16.82,2.2,18.11-3.16,1.29-20.42-11.66-21.37-14.42-.95-2.76-4.87-5.8-4.87-5.8l-.23-9.95Z"/>
      <path class="cls-1" d="M70.71,295.49h52.79v33.68h-52.79c-5.21,0-9.44-4.23-9.44-9.44v-14.79c0-5.21,4.23-9.44,9.44-9.44Z"/>
      <path class="cls-7" d="M158.42,295.49h52.79c5.21,0,9.44,4.23,9.44,9.44v14.79c0,5.21-4.23,9.44-9.44,9.44h-52.79v-33.68h0Z"/>
      <rect class="cls-9" x="114.18" y="295.49" width="53.55" height="33.68"/>
      <path class="cls-4" d="M82.06,302.61h32.12v19.44h-32.12c-2.19,0-3.97-1.78-3.97-3.97v-11.51c0-2.19,1.78-3.97,3.97-3.97Z"/>
      <path class="cls-11" d="M167.73,302.61h32.12c2.19,0,3.97,1.78,3.97,3.97v11.51c0,2.19-1.78,3.97-3.97,3.97h-32.12v-19.44h0Z"/>
      <rect class="cls-2" x="114.18" y="302.61" width="53.55" height="19.44"/>
    </g>
  </g>
</svg>