<?xml version="1.0" encoding="UTF-8"?>
<svg id="Layer_2" data-name="Layer 2" xmlns="http://www.w3.org/2000/svg" viewBox="0 0 3425.34 2138.51">
  <defs>
    <style>
      .cls-1 {
        fill: #757575;
      }

      .cls-2 {
        opacity: .05;
      }

      .cls-3 {
        fill: #434747;
      }

      .cls-4 {
        fill: #1a1a1a;
      }

      .cls-4, .cls-5, .cls-6 {
        opacity: .1;
      }

      .cls-7 {
        fill: #1a1d1e;
      }

      .cls-8 {
        fill: #3f3f3f;
      }

      .cls-9 {
        fill: #4d4d4d;
      }

      .cls-10 {
        fill: #cecece;
      }

      .cls-11 {
        fill: #32383a;
      }

      .cls-12 {
        fill: #282828;
      }

      .cls-13 {
        fill: #333;
      }

      .cls-5 {
        fill: #fff;
      }

      .cls-14 {
        fill: #999;
      }

      .cls-15 {
        fill: #ccc;
      }

      .cls-16 {
        fill: gray;
      }
    </style>
  </defs>
  <g id="Layer_3" data-name="Layer 3">
    <g>
      <rect class="cls-9" x="725.83" y="165.61" width="246.73" height="1901.86"/>
      <path class="cls-9" d="M1350.37,1116.54c0,257.54-67.23,491.16-176.47,662.39-113.46,177.98-272.27,288.54-448.07,288.54-122,0-235.82-53.25-331.98-145.3-99.47-95.22-180.08-232-231.31-394.35-4.12-13.08-8.05-26.32-11.78-39.72-11.04-39.49-20.39-80.4-27.85-122.44-10.91-61.25-17.86-124.96-20.49-190.48-.78-19.41-1.17-38.94-1.17-58.64v-2.87c1.01-523.87,280.26-948.05,624.57-948.05,69.76,0,136.83,17.4,199.46,49.53,247.12,126.7,425.08,482.41,425.08,901.4Z"/>
      <path class="cls-6" d="M972.56,1308.6v758.87h-246.73c-122,0-235.82-53.25-331.98-145.3-165.01-467.55,90.74-884.73,90.74-884.73l241.24,134.07,246.73,137.1Z"/>
      <path class="cls-5" d="M954.67,165.61c-7.34,11.92-19.02,30.87-30.45,48.98-12.69,20.28-25.03,39.52-30.39,46.69,0,0-70.61,18.11-168,73.43-222.8,126.58-585.75,447.99-563.28,1193.1-39.28-124.48-61.29-263.97-61.29-411.27,0-525.19,279.64-950.93,624.57-950.93h228.84Z"/>
      <rect class="cls-16" x="1187.56" width="2237.77" height="2138.51"/>
      <path class="cls-5" d="M3425.34,0v376.98c-573.64,3.36-1600.08,46.95-2237.77,293.8V0h2237.77Z"/>
      <path class="cls-2" d="M3425.34,774.21v1364.3H1187.56v-527.77c477.54-449.34,1616.18-718.22,2237.77-836.53Z"/>
      <path class="cls-4" d="M3287.63,1069.24c0,5.47-.03,10.9-.13,16.34-8.76,531.47-444.65,959.59-981.06,959.59-321.41,0-606.78-153.73-785.72-391.33-122.74-162.91-195.47-365.28-195.47-584.59,0-103.33,16.16-202.91,46.11-296.39,126.11-394.05,497.09-679.54,935.08-679.54,342.14,0,643.39,174.21,818.97,438.25,102.55,154.19,162.22,339.01,162.22,537.67Z"/>
      <path class="cls-3" d="M3262.5,1069.24c0,5.33-.03,10.62-.13,15.92-8.54,517.86-433.26,935.01-955.93,935.01-313.18,0-591.23-149.79-765.6-381.31-119.6-158.73-190.47-355.93-190.47-569.62,0-100.68,15.74-197.71,44.93-288.8,122.88-383.96,484.36-662.13,911.13-662.13,333.37,0,626.91,169.75,798,427.03,99.92,150.24,158.07,330.32,158.07,523.9Z"/>
      <path class="cls-5" d="M3104.43,545.34c-407.03-9.56-1305.99-1.16-1709.13,235.1,122.88-383.96,484.36-662.13,911.13-662.13,333.37,0,626.91,169.75,798,427.03Z"/>
      <path class="cls-2" d="M3262.37,1085.16c-8.54,517.86-433.26,935.01-955.93,935.01-313.18,0-591.23-149.79-765.6-381.31,183.68-412.79,1339.43-527.03,1721.53-553.7Z"/>
      <path class="cls-12" d="M3162.02,1069.24c0,291.12-146.93,548.08-371.1,701.49-137.71,94.29-304.64,149.5-484.49,149.5-472.51,0-855.56-380.99-855.56-850.99s349.6-816.73,792.8-848.7c20.71-1.49,41.65-2.26,62.75-2.26,472.55,0,855.59,380.98,855.59,850.96Z"/>
      <path class="cls-14" d="M1597.1,1116.54c0,525.19-279.61,950.93-624.54,950.93-199,0-376.29-141.72-490.66-362.52-64.08-123.7-108.43-272.2-125.77-434.49-5.36-50.11-8.15-101.52-8.15-153.92,0-525.19,279.64-950.93,624.57-950.93,178.42,0,339.38,113.92,453.16,296.61,67.4,108.11,118.23,240.3,146.41,387.22,16.26,84.76,24.96,174.4,24.96,267.1Z"/>
      <path class="cls-9" d="M1493.89,1116.54c0,197.84-60.81,388.73-166.8,523.77-45.55,57.99-98.53,104.26-153.26,133.74-32.43,17.5-65.42,29.12-98.43,34.65-15.23,2.58-30.52,3.91-45.74,3.91-18.54,0-37.17-1.94-55.71-5.75-28.96-5.94-57.82-16.53-86.35-31.68-.71-.39-1.4-.74-2.11-1.13-54.73-29.48-107.75-75.75-153.26-133.74-87.78-111.88-144.46-261.87-161.44-422.38-.1-.77-.19-1.52-.26-2.29-1.1-11.01-2.08-22.09-2.82-33.19-1.46-21.86-2.24-43.82-2.24-65.9s.78-44.04,2.24-65.9c11.88-173.82,70.35-337.88,164.53-457.9,24.54-31.26,51.26-59.09,79.25-82.76,3.6-3.03,7.21-5.97,10.84-8.88,10.26-8.2,20.68-15.82,31.23-22.83,10.55-7.07,21.23-13.5,31.94-19.28,15.29-8.23,30.65-15.18,46.1-20.76,2.37-.87,4.77-1.68,7.14-2.49,24.84-8.33,49.8-13.3,74.77-14.79,5.39-.32,10.78-.48,16.17-.48,4.15,0,8.25.1,12.4.29,44.12,2.03,88.4,14.85,131.77,38.23,54.73,29.51,107.72,75.78,153.26,133.74,10,12.75,19.61,25.99,28.79,39.72.29.45.62.9.91,1.39,79.63,119.37,127.81,273.14,135.86,434.26.81,16.11,1.23,32.23,1.23,48.43Z"/>
      <path class="cls-7" d="M1285.73,1132.72c0,182.6-51.78,358.8-142.06,483.44-38.76,53.54-83.92,96.25-130.51,123.48-27.63,16.15-55.71,26.87-83.82,31.97-12.99,2.39-25.97,3.62-38.96,3.62-.94,0-1.85,0-2.79-.03-.71-.39-1.4-.74-2.11-1.13-15.16-8.17-30.19-17.63-44.96-28.25-35.26-25.38-69.08-57.51-99.76-94.9-2.89-3.49-5.71-7.01-8.54-10.59-35.42-45.11-65.77-96.45-90.48-152.21-18.31-41.2-33.54-84.86-45.42-130.16-14.19-53.86-23.63-110.08-28.05-167.42-.03-.65-.1-1.26-.13-1.91-.16-2.07-.29-4.13-.46-6.17-1.46-21.86-2.24-43.82-2.24-65.9s.75-43.43,2.18-64.97c.03-.32.03-.61.06-.94,0-.19.03-.39.03-.58,4.67-67.91,16.49-134.29,34.74-197.16,13.08-45.08,29.48-88.28,48.92-128.93,22.85-47.69,49.93-91.83,80.83-131.22,6.23-7.94,12.6-15.66,19.09-23.12,22.4-25.8,46.23-48.79,71-68.52,14.41-4.58,28.86-7.75,43.34-9.43,8.25-.97,16.49-1.45,24.74-1.45,3.54,0,7.01.1,10.55.26,37.59,1.87,75.28,13.72,112.23,35.29,46.59,27.25,91.74,69.94,130.51,123.44,90.28,124.67,142.06,300.91,142.06,483.5Z"/>
      <g>
        <path class="cls-9" d="M1218.89,1122.22c0,113.66-16.85,219.76-45.97,309.46-23.44,72.3-54.9,133.87-91.94,180.31v89.93l-110.74,2.71-45.9,1.13c-2.66.13-5.32.19-8.02.19-119.14,0-222.18-132.84-271.53-325.93-19.87-77.75-31.04-165.26-31.04-257.8,0-69.39,6.27-135.94,17.79-197.68,41.98-225.09,153.65-386.05,284.77-386.05,0-.03,53.92-1.36,53.92-1.36l102.62-2.52c.32-.03,8.12-.19,8.12-.19v98.03c22.63,28.38,43.18,62.42,61.06,101.1,47.79,103.2,76.84,239.4,76.84,388.67Z"/>
        <path class="cls-14" d="M1383.55,1118.19c0,1.61,0,3.23-.03,4.84,0,1.61,0,3.23-.03,4.84-.65,77.91-9.22,152.08-24.22,219.7-8.34,37.75-18.7,73.46-30.84,106.59-32.43,88.83-77.43,159.38-129.95,202.1-28.83,23.44-59.93,38.52-92.49,43.65-3.31.55-6.62.97-9.97,1.29-4.97.48-10,.71-15.03.71-39.09,0-76.45-14.3-110.74-40.33-3.28-2.49-6.52-5.1-9.74-7.78-55.51-46.53-102.36-124.22-134.63-221.6-18.31-55.28-31.94-116.89-39.77-182.73-5.03-42.2-7.69-86.15-7.69-131.29,0-116.4,17.66-224.86,48.08-315.89,34.12-102.2,84.34-182.47,143.75-227.54,31.91-24.22,66.45-38.3,102.62-40.14.32-.03,8.12-.19,8.12-.19,3.05,0,6.1.1,9.12.29,5.32.26,10.62.84,15.87,1.68,31.46,4.97,61.58,19.24,89.6,41.4,32.01,25.25,61.26,60.83,86.68,104.59,5.71,9.82,11.2,20.05,16.52,30.67,15.88,31.71,29.87,66.84,41.68,104.81,7.86,25.25,14.77,51.76,20.65,79.34,6.59,31.13,11.85,63.64,15.62,97.22.36,3.1.68,6.2.97,9.33,3.86,36.97,5.84,75.23,5.84,114.43Z"/>
      </g>
      <path class="cls-1" d="M291.46,991.39c0,9.01-.81,17.79-2.34,26.19-8.8,49.02-41.85,85.41-81.32,85.41-29.44,0-55.32-20.28-70.22-50.95-7.17-14.72-11.78-31.81-13.08-50.21-.23-3.42-.36-6.91-.36-10.43,0-55.09,29.9-100.84,69.25-109.95,4.67-1.07,9.48-1.65,14.41-1.65,40.48,0,74.21,38.3,81.97,89.25,1.1,7.2,1.69,14.69,1.69,22.34Z"/>
      <path class="cls-5" d="M1072.87,534.62c-36.17,1.84-70.71,15.92-102.62,40.14-59.41,45.08-109.63,125.35-143.75,227.54-76.65,28.38-148.98,67.81-194.95,122.25,41.98-225.09,153.65-386.05,284.77-386.05,0-.03,53.92-1.36,53.92-1.36l102.62-2.52Z"/>
      <path class="cls-2" d="M1080.98,1701.92l-110.74,2.71-45.9,1.13c-2.66.13-5.32.19-8.02.19-119.14,0-222.18-132.84-271.53-325.93,30.87-72.75,86.68-111.04,141.32-130.55,7.82,65.84,21.46,127.45,39.77,182.73,32.27,97.39,79.12,175.08,134.63,221.6,3.21,2.68,6.46,5.3,9.74,7.78,34.28,26.03,71.65,40.33,110.74,40.33Z"/>
      <polygon class="cls-1" points="207.8 879.79 207.8 1102.98 83.66 1117.25 83.66 894.07 193.39 881.44 207.8 879.79"/>
      <g>
        <path class="cls-1" d="M718.78,1036.5v135.1c-.19.03-150.63,17.02-150.63,17.02-.16-2.07-.29-4.13-.46-6.17-1.1-16.27-1.79-32.61-2.11-49.02-.07-5.62-.13-11.24-.13-16.89,0-2.81,0-5.59.03-8.39.16-18.92.91-37.81,2.14-56.57.03-.32.03-.61.06-.94,0-.19.03-.39.03-.58l148.3-13.3,2.76-.26Z"/>
        <path class="cls-1" d="M752.74,1104.53c0,5.72-.36,11.3-1.07,16.63-3.77,28.8-17.04,50.47-32.89,50.47-15.97-.19-29.15-21.76-32.92-50.4-.72-5.36-1.07-10.95-1.07-16.69,0-6.26.46-12.37,1.3-18.18,3.73-26.61,15.58-47.27,29.93-49.6.91-.19,1.82-.26,2.76-.26,14.48,0,26.82,18.63,31.72,44.01,1.43,7.52,2.24,15.63,2.24,24.02Z"/>
      </g>
      <g>
        <path class="cls-1" d="M769.95,761.16l-12.24,47.66-11.23,43.78-10.1,39.33c-.16-.03-5.39-1.58-5.39-1.58l-128.52-37.46c5.1-17.6,10.71-34.87,16.82-51.86,3.93-10.95,8.05-21.76,12.4-32.42,6.14-15.21,12.73-30.09,19.7-44.66l118.56,37.2Z"/>
        <path class="cls-1" d="M787.93,819.7c-.75,5.26-1.88,10.62-3.38,16.02-3.15,11.4-7.66,21.76-12.92,30.38-10.32,16.98-23.57,27.29-35.26,25.83-.94-.13-1.69-.26-2.47-.48-1.01-.29-1.98-.65-2.92-1.1-12.76-6.1-18.7-27.7-15.74-53.31.71-6.23,1.98-12.69,3.77-19.24,1.95-7.07,4.45-13.76,7.3-19.89,11.49-24.7,29.12-40.69,43.63-36.75,15.32,4.23,22.21,29.42,17.99,58.54Z"/>
      </g>
      <g>
        <path class="cls-1" d="M915.35,547.89l-34.15,32.19-47.27,44.53-17.21,16.21-65.42-71.2c8.76-10.14,17.79-19.79,26.98-29.03,13.86-13.88,28.15-26.77,42.75-38.49.42-.32.84-.68,1.27-1,14.41-4.58,28.86-7.75,43.34-9.43l49.7,56.22Z"/>
        <path class="cls-1" d="M904.35,602.04c-4.32,5.88-9.45,11.69-15.26,17.18-12.17,11.5-25.58,19.83-37.79,24.19-14.64,5.23-27.53,4.81-34.57-2.58-7.53-7.91-6.66-22.09.71-37.55,5.23-10.98,13.77-22.64,24.9-33.13,5.75-5.43,11.78-10.14,17.86-14.11,22.27-14.56,45-18.79,55.16-8.14,10.13,10.62,4.71,32.87-11.01,54.15Z"/>
      </g>
      <g>
        <path class="cls-1" d="M769.95,1447.87l-128.2,40.23c-6.53-14.69-12.66-29.68-18.37-44.95-5.23-13.85-10.06-27.93-14.61-42.2-4.48-14.14-8.64-28.48-12.43-43.01l134.66-39.26,5.23-1.55c.16-.03,12.43,47.82,12.43,47.82l8.51,33.1,12.79,49.82Z"/>
        <path class="cls-1" d="M769.95,1447.87c-15.52,4.23-34.67-14.4-46-42.11-1.88-4.62-3.54-9.49-4.93-14.53-1.85-6.68-3.08-13.27-3.8-19.63-2.89-25.44,3.08-46.85,15.78-52.92.94-.45,1.92-.81,2.92-1.1.78-.19,1.53-.35,2.31-.45,15.26-1.91,32.95,15.85,43.6,42.2,1.79,4.42,3.38,9.11,4.74,13.98,1.72,6.26,2.96,12.46,3.7,18.5,3.5,28.06-3.44,51.95-18.31,56.05Z"/>
      </g>
      <g>
        <path class="cls-1" d="M915.35,1661.14l-74.83,84.66c-8.25-5.94-16.43-12.27-24.51-18.96-12.63-10.4-25.03-21.67-37.07-33.77-13.15-13.14-25.91-27.22-38.18-42.17l75.97-82.69,31.49,29.67,34.25,32.26,32.89,31Z"/>
        <path class="cls-1" d="M915.35,1661.14c-10,10.49-32.27,6.52-54.21-7.52-6.4-4.1-12.76-9.04-18.8-14.72-6.27-5.88-11.69-12.14-16.17-18.44-14.77-20.7-19.32-41.88-9.45-52.24,10.29-10.82,33.15-6.72,55.55,8.2,5.71,3.78,11.39,8.27,16.82,13.4,6.14,5.78,11.53,11.98,16.04,18.21,15.1,20.96,20.19,42.65,10.23,53.12Z"/>
      </g>
      <g>
        <path class="cls-1" d="M1416.79,1119.54c-.1,0-33.28,3.49-33.28,3.49.03-1.62.03-3.23.03-4.84,0-10.27-.13-20.5-.39-30.64-.39-14.27-1.04-28.38-1.98-42.36-.88-13.98-2.05-27.77-3.47-41.43l35.61-3.03,2.79-.23.19,35.62.29,48.02.19,35.42Z"/>
        <path class="cls-1" d="M1450.46,1060.23c.03,8.07-.88,15.79-2.53,22.83-5.03,21.25-17.04,36.42-31.13,36.49-13.34,0-24.83-13.3-30.52-32.48-2.37-7.98-3.73-16.95-3.8-26.45-.03-5.59.39-11.04,1.23-16.24,3.67-23.31,15.36-41.46,29.61-43.65l2.79-.23c12.63-.06,23.73,12.37,29.67,30.35,2.92,8.75,4.61,18.79,4.67,29.38Z"/>
      </g>
      <path class="cls-1" d="M1204.15,534.42l-8.57,43.37c-8.9-7.04-18.02-13.3-27.34-18.66-7.56-4.42-15.26-8.27-23.05-11.53-3.28-1.36-6.43-2.58-9.61-3.68-1.88-.68-3.8-1.29-5.71-1.87-7.86-2.49-15.84-4.39-23.89-5.65-5.26-.84-10.55-1.42-15.87-1.68l14.61-32.03,33.96,10.85,40.26,12.85,25.22,8.04Z"/>
      <path class="cls-1" d="M1369.75,800.62l-29.28,17.24c-4.16-13.33-8.57-26.35-13.24-38.94-2.57-6.91-5.19-13.69-7.92-20.37-6.43-15.85-13.28-31.03-20.52-45.5l33.31-9.3,15.74,40.46,7.76,19.96,14.16,36.45Z"/>
      <path class="cls-1" d="M1204.15,534.42c-3.57,10.98-17.01,17.18-33.99,17.21-7.79.03-16.33-1.29-24.96-4.04-3.44-1.1-6.59-2.32-9.61-3.68-1.92-.84-3.73-1.74-5.52-2.71-18.67-10.14-29.51-25.64-25.35-38.52,4.38-13.59,24.12-19.89,46.78-16.11,4.03.65,8.15,1.65,12.3,2.97,10.19,3.26,19.09,8.07,25.97,13.66,11.69,9.46,17.63,21.15,14.38,31.22Z"/>
      <path class="cls-1" d="M1369.75,800.62c-12.69,4.88-28.93-5.04-40.22-23.05-2.7-4.36-5.16-9.2-7.17-14.4-.68-1.78-1.33-3.55-1.85-5.33-7.92-24.9-3.15-48.43,11.59-54.08,14.25-5.49,32.98,7.68,44.12,30.06,1.2,2.36,2.27,4.84,3.28,7.39,1.46,3.75,2.63,7.46,3.51,11.14,5.45,22.63.32,43.04-13.25,48.27Z"/>
      <g>
        <path class="cls-1" d="M1211.04,1698.95s-37.33,15.08-37.33,15.08l-36.03,14.56-23.41,9.46-18.25-36.84c3.34-.32,6.66-.74,9.97-1.29,10.65-1.68,21.2-4.42,31.52-8.23,11.75-4.23,23.24-9.85,34.48-16.69,9.02-5.43,17.86-11.72,26.49-18.73l12.56,42.69Z"/>
        <path class="cls-1" d="M1174.19,1746.74c-.49.19-1.01.39-1.49.58-14.03,5.39-27.95,6.72-38.83,4.46-9.51-1.94-16.69-6.62-19.61-13.72-5.26-12.85,5.03-29.64,23.8-41.2,3.99-2.45,8.34-4.68,13.05-6.59,7.37-2.97,14.74-4.84,21.65-5.62,18.28-2.13,33.63,3,38.24,14.3,6.36,15.6-10.13,36.97-36.81,47.79Z"/>
      </g>
      <g>
        <path class="cls-1" d="M1397.54,1368.11l-12.27,31.58-15.94,41.01-9.45,24.28-31.46-10.82c3.67-10.04,7.21-20.34,10.52-30.84,4.15-12.91,7.99-26.19,11.56-39.75,3.15-11.75,6.07-23.77,8.76-36l38.27,20.54Z"/>
        <path class="cls-1" d="M1411.34,1413.8c-.91,4.49-2.27,9.11-4.06,13.72-4.45,11.4-10.81,20.99-17.92,27.77-9.58,9.14-20.42,13.17-29.48,9.69-11.62-4.49-17.04-20.08-14.9-38.72.71-6.65,2.43-13.66,5.16-20.7,2.6-6.72,5.91-12.82,9.61-18.05,11.1-15.69,25.97-23.96,37.79-19.41,13.05,5.04,18.28,24.09,13.8,45.69Z"/>
      </g>
      <path class="cls-1" d="M875.39,502.68c-5,25.8-63.92,15.89-63.92,15.89v-8.59c3.6-3.03,7.21-5.97,10.84-8.88,10.26-8.2,20.68-15.82,31.23-22.83l21.85,24.41Z"/>
      <g>
        <g>
          <path class="cls-4" d="M3309.22,164.78c-9.78,0-19.08-2.96-26.9-8.56-12.39-8.59-19.82-22.78-19.82-37.91,0-25.63,20.96-46.47,46.73-46.47,10.33,0,20.14,3.33,28.38,9.64,4.86,3.62,9.04,8.34,12.03,13.6,4.12,6.96,6.32,15.02,6.32,23.24,0,25.02-20.47,45.87-45.62,46.47-.07,0-1.11,0-1.11,0Z"/>
          <path class="cls-15" d="M3349.71,118.32c0,21.83-17.65,39.76-39.52,40.28h-.97c-3.08,0-6.1-.35-8.97-1.01-5.22-1.16-10.06-3.37-14.28-6.39-2.52-1.75-4.82-3.78-6.86-6.04-6.45-7.1-10.39-16.54-10.39-26.83,0-22.2,18.2-40.28,40.49-40.28,9.28,0,17.77,3.11,24.58,8.33,1.92,1.44,3.7,3.04,5.34,4.81,1.95,2.1,3.65,4.44,5.08,6.94,2.63,4.46,4.44,9.46,5.15,14.82.24,1.75.36,3.56.36,5.38Z"/>
        </g>
        <path class="cls-5" d="M3339.13,91.18c-22.65,5.07-48.77,18.83-60.02,53.96-6.45-7.1-10.39-16.54-10.39-26.83,0-22.2,18.2-40.28,40.49-40.28,9.28,0,17.77,3.11,24.58,8.33,1.92,1.44,3.7,3.04,5.34,4.81Z"/>
        <path class="cls-6" d="M3349.71,118.32c0,21.83-17.65,39.76-39.52,40.28h-.97c-3.08,0-6.1-.35-8.97-1.01,9.27-29.54,30.91-40.68,49.1-44.64.24,1.75.36,3.56.36,5.38Z"/>
      </g>
      <g>
        <g>
          <path class="cls-4" d="M1355.07,120.28c.42-9.72-2.16-19.09-7.46-27.1-8.1-12.67-22.04-20.67-37.24-21.31-25.74-1.09-47.57,18.85-48.67,44.46-.44,10.26,2.49,20.15,8.47,28.61,3.43,4.98,8,9.34,13.15,12.53,6.81,4.39,14.82,6.92,23.07,7.27,25.14,1.06,46.95-18.39,48.62-43.35,0-.07.05-1.1.05-1.1Z"/>
          <path class="cls-15" d="M1306.67,158.54c21.92.93,40.69-15.85,42.14-37.56l.04-.97c.13-3.06-.1-6.07-.64-8.95-.94-5.23-2.96-10.14-5.82-14.46-1.65-2.57-3.59-4.95-5.78-7.07-6.86-6.72-16.17-11.03-26.51-11.47-22.3-.94-41.23,16.37-42.18,38.53-.39,9.22,2.37,17.79,7.32,24.78,1.36,1.97,2.9,3.81,4.61,5.51,2.03,2.02,4.3,3.82,6.75,5.34,4.37,2.81,9.32,4.81,14.66,5.75,1.74.31,3.56.51,5.39.58Z"/>
        </g>
        <path class="cls-5" d="M1279.86,146.87c6.06-22.3,20.99-47.67,56.76-57.35-6.86-6.72-16.17-11.03-26.51-11.47-22.3-.94-41.23,16.37-42.18,38.53-.39,9.22,2.37,17.79,7.32,24.78,1.36,1.97,2.9,3.81,4.61,5.51Z"/>
        <path class="cls-6" d="M1306.67,158.54c21.92.93,40.69-15.85,42.14-37.56l.04-.97c.13-3.06-.1-6.07-.64-8.95-30.07,7.96-42.17,28.99-46.93,46.9,1.74.31,3.56.51,5.39.58Z"/>
      </g>
      <g>
        <g>
          <path class="cls-4" d="M3355.45,2010.46c-1.43-9.62-5.73-18.34-12.45-25.22-10.36-10.93-25.56-16.17-40.61-13.96-25.49,3.75-43.16,27.42-39.39,52.77,1.51,10.16,6.26,19.33,13.73,26.51,4.32,4.25,9.62,7.67,15.29,9.85,7.52,3.03,15.87,4.02,24.03,2.82,24.89-3.66,42.63-26.84,39.55-51.68-.01-.07-.16-1.09-.16-1.09Z"/>
          <path class="cls-15" d="M3315.15,2057.1c21.71-3.19,36.96-23.18,34.28-44.78l-.14-.96c-.45-3.03-1.24-5.95-2.32-8.67-1.91-4.97-4.83-9.4-8.45-13.12-2.1-2.22-4.46-4.19-7.01-5.86-8.01-5.31-17.97-7.81-28.2-6.3-22.08,3.25-37.4,23.79-34.14,45.73,1.36,9.13,5.7,17.03,11.88,22.96,1.71,1.68,3.57,3.2,5.57,4.55,2.37,1.61,4.95,2.95,7.64,3.98,4.82,1.94,10.06,2.98,15.49,2.9,1.77-.02,3.6-.17,5.4-.44Z"/>
        </g>
        <path class="cls-5" d="M3286.62,2050.65c1.73-23.03,11.59-50.74,44.89-66.95-8.01-5.31-17.97-7.81-28.2-6.3-22.08,3.25-37.4,23.79-34.14,45.73,1.36,9.13,5.7,17.03,11.88,22.96,1.71,1.68,3.57,3.2,5.57,4.55Z"/>
        <path class="cls-6" d="M3315.15,2057.1c21.71-3.19,36.96-23.18,34.28-44.78l-.14-.96c-.45-3.03-1.24-5.95-2.32-8.67-28.02,13.45-35.94,36.36-37.22,54.84,1.77-.02,3.6-.17,5.4-.44Z"/>
      </g>
      <g>
        <g>
          <path class="cls-4" d="M1314.28,2063.36c-9.7,1.23-19.3-.54-27.77-5.12-13.38-6.97-22.55-20.11-24.47-35.12-3.25-25.42,14.9-48.73,40.46-51.97,10.24-1.3,20.4.78,29.37,6,5.28,2.99,10.02,7.14,13.66,11.99,4.97,6.39,8.17,14.11,9.21,22.26,3.17,24.83-14.48,48.07-39.36,51.83-.07.01-1.1.14-1.1.14Z"/>
          <path class="cls-15" d="M1348.55,2012.19c2.77,21.65-12.47,41.65-34.1,44.91l-.96.12c-3.06.39-6.09.41-9.02.12-5.32-.49-10.41-2.09-14.98-4.55-2.72-1.42-5.26-3.14-7.57-5.13-7.3-6.24-12.41-15.1-13.71-25.31-2.82-22.03,12.94-42.24,35.06-45.04,9.2-1.16,18.02.86,25.44,5.18,2.09,1.19,4.06,2.56,5.91,4.11,2.2,1.84,4.19,3.94,5.92,6.24,3.18,4.09,5.6,8.83,6.99,14.05.46,1.7.8,3.49,1.04,5.29Z"/>
        </g>
        <path class="cls-5" d="M1334.61,1986.6c-21.83,7.87-46,24.8-52.69,61.06-7.3-6.24-12.41-15.1-13.71-25.31-2.82-22.03,12.94-42.24,35.06-45.04,9.2-1.16,18.02.86,25.44,5.18,2.09,1.19,4.06,2.56,5.91,4.11Z"/>
        <path class="cls-6" d="M1348.55,2012.19c2.77,21.65-12.47,41.65-34.1,44.91l-.96.12c-3.06.39-6.09.41-9.02.12,5.45-30.47,25.5-44.23,43.05-50.45.46,1.7.8,3.49,1.04,5.29Z"/>
      </g>
      <path class="cls-13" d="M3162.02,1069.24c0,291.12-146.93,548.08-371.1,701.49-875.65-388.02-706.38-1209.76-547.24-1550.19,20.71-1.49,41.65-2.26,62.75-2.26,472.55,0,855.59,380.98,855.59,850.96Z"/>
      <path class="cls-5" d="M1282.26,682.38c-167.58,134.81-406.94,386.22-456.38,749.83-30.06-90.7-47.46-198.42-47.46-314.02,0-247.01,79.5-458.19,191.83-543.43,31.91-24.22,66.45-38.3,102.62-40.14.32-.03,8.12-.19,8.12-.19,3.05,0,6.1.1,9.12.29,5.32.26,10.62.84,15.87,1.68,31.46,4.97,61.58,19.24,89.6,41.4,32.01,25.25,61.26,60.83,86.68,104.59Z"/>
      <path class="cls-2" d="M1383.55,1118.19c0,1.61,0,3.23-.03,4.84,0,1.61,0,3.23-.03,4.84-.65,77.91-9.22,152.08-24.22,219.7-8.34,37.75-18.7,73.46-30.84,106.59-32.43,88.83-77.43,159.38-129.95,202.1-28.83,23.44-59.93,38.52-92.49,43.65-3.31.55-6.62.97-9.97,1.29-4.97.48-10,.71-15.03.71-39.09,0-76.45-14.3-110.74-40.33-3.28-2.49-6.52-5.1-9.74-7.78-54.08-369.62,267.54-655.58,400.61-756.61,6.59,31.13,11.85,63.64,15.62,97.22.36,3.1.68,6.2.97,9.33,3.86,36.97,5.84,75.23,5.84,114.43Z"/>
      <path class="cls-13" d="M1057.58,1355.81l-2.37-1.29c1.17.52,2.04,1.07,2.37,1.29Z"/>
      <path class="cls-5" d="M1426.21,464.45c-18.34,60.74-41.81,117.08-69.41,169.39-.29-.49-.62-.94-.91-1.39-9.19-13.72-18.8-26.96-28.79-39.72-45.55-57.96-98.53-104.23-153.26-133.74-43.37-23.38-87.65-36.2-131.77-38.23-4.16-.19-8.25-.29-12.4-.29-5.39,0-10.78.16-16.17.48-24.96,1.49-49.93,6.46-74.77,14.79-2.37.81-4.77,1.62-7.14,2.49-15.45,5.59-30.81,12.53-46.1,20.76-10.71,5.78-21.39,12.21-31.94,19.28-10.55,7.01-20.97,14.63-31.23,22.83-3.64,2.91-7.24,5.85-10.84,8.88-27.98,23.67-54.7,51.5-79.25,82.76-94.18,120.02-152.64,284.08-164.53,457.9-1.46,21.86-2.24,43.82-2.24,65.9s.78,44.04,2.24,65.9c.75,11.11,1.72,22.18,2.82,33.19.07.77.16,1.52.26,2.29-78.79,24.6-152.06,42.2-214.16,54.76-5.36-50.11-8.15-101.52-8.15-153.92,0-525.19,279.65-950.93,624.57-950.93,178.42,0,339.38,113.92,453.16,296.61Z"/>
      <path class="cls-6" d="M1597.1,1116.54c0,525.19-279.61,950.93-624.54,950.93-199,0-376.29-141.72-490.66-362.52,73.24-14.53,159.17-35.29,250.26-64.74,45.58,58.09,98.59,104.36,153.33,133.84.71.39,1.4.74,2.11,1.13,28.54,15.14,57.4,25.74,86.35,31.68,18.54,3.81,37.17,5.75,55.71,5.75,15.22,0,30.52-1.32,45.74-3.91,33.02-5.52,66-17.15,98.43-34.65,54.73-29.48,107.72-75.75,153.26-133.74,105.99-135.04,166.8-325.93,166.8-523.77,0-16.21-.42-32.32-1.23-48.4,34.18-66.23,61.32-138.88,79.47-218.67,16.26,84.73,24.96,174.36,24.96,267.07Z"/>
      <path class="cls-11" d="M526.53,901.4c0,41.94-23.24,75.98-51.94,75.98-3.18,0-6.3-.42-9.35-1.26-11.07-2.91-20.94-11.01-28.37-22.47-8.8-13.63-14.22-32.03-14.22-52.24,0-41.98,23.24-76.01,51.94-76.01,5.62,0,11.01,1.29,16.07,3.75,11.4,5.39,21.07,16.4,27.5,30.8,5.29,11.91,8.38,26.15,8.38,41.46Z"/>
      <path class="cls-11" d="M526.53,1337.5c0,39.3-20.39,71.65-46.52,75.59-1.78.29-3.6.42-5.42.42-14.32,0-27.3-8.46-36.72-22.18-9.38-13.79-15.23-32.81-15.23-53.83,0-41.94,23.24-75.98,51.94-75.98,8.7,0,16.88,3.13,24.09,8.65,10.42,7.98,18.73,20.99,23.47,36.81,2.83,9.33,4.38,19.66,4.38,30.51Z"/>
      <path class="cls-5" d="M289.77,969.04c-22.66-2.52-53.14-4.68-81.97-2.81-37.37,2.39-71.97,11.56-83.27,35.52-9.97,21.02-25.84,12.14-40.87-9.49v-98.19l109.73-12.63c4.67-1.07,9.48-1.65,14.41-1.65,40.48,0,74.21,38.3,81.97,89.25Z"/>
      <path class="cls-5" d="M312.34,797.91l-.06-.78s.1.29.06.78Z"/>
      <path class="cls-6" d="M289.12,1017.57c-8.8,49.02-41.85,85.41-81.32,85.41l-124.14,14.27v-31.71c13.63-13.56,32.53-24.57,53.92-33.52,21.78-9.11,46.16-16.08,70.22-21.41,29.35-6.52,58.21-10.56,81.32-13.04Z"/>
      <path class="cls-9" d="M167.32,1005.47c0,61.83-37.43,111.79-83.66,111.79-16.56,0-31.94-6.39-44.93-17.44-13.18-11.24-23.86-27.25-30.65-46.24-5.16-14.53-8.08-30.77-8.08-47.92,0-61.64,37.46-111.59,83.66-111.59,25.26,0,47.85,14.89,63.14,38.46,12.79,19.57,20.48,45.04,20.52,72.94Z"/>
      <path class="cls-5" d="M146.8,932.52c-44.31,13.05-113.85,45.21-138.72,121.05-5.16-14.53-8.08-30.77-8.08-47.92,0-61.64,37.46-111.59,83.66-111.59,25.26,0,47.85,14.89,63.14,38.46Z"/>
      <path class="cls-6" d="M167.32,1005.47c0,61.83-37.43,111.79-83.66,111.79-16.56,0-31.94-6.39-44.93-17.44,16.75-47.43,82.36-78.14,128.59-94.35Z"/>
      <path class="cls-8" d="M287.37,1278.83s-7.56,106.49-136.61,209.27c-11.04-39.49-20.39-80.4-27.85-122.44l84.89-9.75c37.2,0,68.69-32.32,79.57-77.08Z"/>
      <path class="cls-8" d="M287.37,1025.65s-7.56,106.49-136.61,209.27c-5.71-20.47-27.59-39.91-48.34-59.74-.78-19.41-1.17-38.94-1.17-58.64v-2.87l106.55-10.95c37.2,0,68.69-32.32,79.57-77.08Z"/>
      <path class="cls-6" d="M460.47,1355.87l50.79,35.45s13.33,5.15,27.18-8.62c13.85-13.77-25.97-452.69-25.97-452.69l-13.79-32.82-39.31,12.24s3.88,24.88,18.75,30.27c0,0,24.21-11.95,24.21,13.94s1.26,297.81,1.26,297.81c0,0-5.12,60.55,0,65.64,5.12,5.1-43.12,38.78-43.12,38.78Z"/>
      <g>
        <path class="cls-1" d="M291.46,1244.31c0,12.04-1.43,23.67-4.09,34.52-10.88,44.75-42.37,77.08-79.57,77.08-22.14,0-42.3-11.5-57.27-30.26-1.04-1.26-2.01-2.55-2.99-3.91-4.12-5.68-7.79-11.98-10.94-18.76-7.89-17.05-12.47-37.13-12.47-58.67,0-1.71.03-3.42.1-5.13.81-23.18,6.85-44.53,16.69-61.9,12.53-22.22,31.1-37.97,52.46-42.91,4.67-1.07,9.48-1.65,14.41-1.65,37.43,0,69.12,32.74,79.8,77.95,2.5,10.62,3.86,21.92,3.86,33.65Z"/>
        <path class="cls-1" d="M207.8,1132.72v223.19l-109.53,12.59c-.13.03-13.02,1.48-13.02,1.48l-1.59.19v-223.19l14.09-1.61,95.64-11.01,14.41-1.65Z"/>
        <path class="cls-5" d="M287.6,1210.67c-20.13-1.45-49.99-2.55-79.8.42-32.07,3.16-64.05,11.01-83.56,28.09-7.08,6.17-12.5,13.53-15.75,22.34-22.59,61.48-17.37-69.84-10.74-116.15l95.64-11.01c4.67-1.07,9.48-1.65,14.41-1.65,37.43,0,69.12,32.74,79.8,77.95Z"/>
        <path class="cls-6" d="M287.37,1278.83c-10.88,44.75-42.37,77.08-79.57,77.08l-124.14,14.27v-47.37c16.13-7.94,34.25-14.47,52.95-19.83,23.8-6.85,48.47-11.82,71.19-15.4,34.44-5.49,64.34-7.81,79.57-8.75Z"/>
        <path class="cls-9" d="M167.32,1258.58c0,1.49-.03,2.97-.06,4.42-.62,20.7-5.42,39.91-13.34,56.22-1.07,2.19-2.21,4.36-3.38,6.43-12.47,22.12-30.97,37.84-52.27,42.85-4.32,1-8.6,1.55-12.99,1.65-.55.03-1.07.03-1.62.03-11.88,0-23.15-3.29-33.37-9.23-11.3-6.56-21.26-16.34-29.28-28.48-13.08-19.67-21-45.53-21-73.88,0-61.64,37.46-111.59,83.66-111.59,22.2,0,42.36,11.5,57.27,30.29,1.53,1.87,2.95,3.84,4.35,5.84,13.7,19.86,22.04,46.34,22.04,75.46Z"/>
        <path class="cls-5" d="M145.28,1183.12c-43.89,28.03-109.76,80.4-124.27,149.34-13.08-19.67-21-45.53-21-73.88,0-61.64,37.46-111.59,83.66-111.59,24.41,0,46.36,13.92,61.62,36.13Z"/>
        <path class="cls-6" d="M167.25,1263.01c-1.75,59.61-38.47,107.17-83.59,107.17-11.88,0-23.15-3.29-33.37-9.23,10.81-47.4,76.71-81.34,116.97-97.93Z"/>
      </g>
      <path class="cls-5" d="M436.71,951.86c.07.61.13,1.2.16,1.78-8.8-13.63-14.22-32.03-14.22-52.24,0-41.98,23.24-76.01,51.94-76.01,5.62,0,11.01,1.29,16.07,3.75-25.45,17.28-61.06,54.15-53.95,122.73Z"/>
      <path class="cls-6" d="M526.53,901.4c0,41.94-23.24,75.98-51.94,75.98-3.18,0-6.3-.42-9.35-1.26-2.08-51.86,33.31-95.87,52.92-116.18,5.29,11.91,8.38,26.15,8.38,41.46Z"/>
      <path class="cls-5" d="M437.87,1391.23c-9.38-13.69-15.23-32.71-15.23-53.73,0-41.94,23.24-75.98,51.94-75.98,8.7,0,16.88,3.13,24.09,8.65-28.15,16.21-64.12,50.79-60.8,121.05Z"/>
      <path class="cls-6" d="M526.53,1337.5c0,39.3-20.39,71.65-46.52,75.59-9.58-42.62,19.06-82.24,42.14-106.1,2.83,9.33,4.38,19.66,4.38,30.51Z"/>
      <path class="cls-10" d="M530.79,919.09v402.2c0,5.17-.97,10.11-2.82,14.59-.71,1.81-1.59,3.55-2.56,5.23-6.88,11.69-19.58,19.5-34.15,19.5h-22.76c-3.47,0-6.46-1.94-8.02-4.75-.71-1.29-1.1-2.74-1.1-4.33v-21.18c0-5.01,4.09-9.07,9.12-9.07h19.02v-402.2h-19.02c-5.03,0-9.12-4.04-9.12-9.07v-17.73c0-6.91,5.65-12.5,12.6-12.5h19.28c14.61,0,27.37,7.88,34.19,19.57.97,1.65,1.82,3.39,2.53,5.2,1.82,4.49,2.82,9.4,2.82,14.53Z"/>
      <path class="cls-5" d="M468.07,859.9c.68,0,1.1.03,1.1.03,0,0-1.4.26-1.1-.03Z"/>
      <path class="cls-5" d="M525.43,899.36c-18.24-15.11-52.01-5.49-66.06-.48v-6.59c0-6.91,5.65-12.5,12.6-12.5h19.28c14.61,0,27.37,7.88,34.19,19.57Z"/>
      <path class="cls-5" d="M487.51,1321.29c-3.73,10.11-17.21,13.95-28.15,15.4v-6.33c0-5.01,4.09-9.07,9.12-9.07h19.02Z"/>
      <path class="cls-6" d="M525.4,1341.15c-6.88,11.66-19.58,19.47-34.15,19.47h-22.76c-3.47,0-6.46-1.94-8.02-4.75,17.66-.55,47.59-3.29,64.93-14.72Z"/>
      <path class="cls-6" d="M487.51,919.09h-19.02c-5.03,0-9.12-4.04-9.12-9.07v-.58c20.81-2.84,28.15,9.66,28.15,9.66Z"/>
      <path class="cls-5" d="M487.51,1321.29v-402.2s25.09,267.42,0,402.2Z"/>
      <path class="cls-6" d="M530.79,919.09v402.2c0,5.17-.97,10.11-2.82,14.59-16.43-91.12,0-431.32,0-431.32,1.82,4.49,2.82,9.4,2.82,14.53Z"/>
      <path class="cls-5" d="M872.27,1576.41c-7.76,6.52-15.91,13.69-24.06,21.47-7.43,7.04-14.87,14.6-22.04,22.57-19.58,21.73-37.17,46.46-47.24,72.62-13.15-13.14-25.91-27.22-38.18-42.17l75.97-82.69c10.29-10.82,33.15-6.72,55.55,8.2Z"/>
      <path class="cls-5" d="M779.82,1359.33c-9.64,1.68-20.16,3.55-31.17,5.62-10.81,2.03-22.07,4.26-33.44,6.65-39.09,8.14-79.47,18.24-106.45,29.35-4.48-14.14-8.64-28.48-12.43-43.01l134.66-39.26c.94-.45,1.92-.81,2.92-1.1.78-.19,1.53-.35,2.31-.45,15.26-1.91,32.95,15.85,43.6,42.2Z"/>
      <path class="cls-5" d="M750.5,1080.51c-10.06.71-20.71,1.58-31.72,2.55-10.65.97-21.62,2.07-32.69,3.29-42.98,4.78-87.52,11.72-120.6,21.8.16-18.92.91-37.81,2.14-56.57.03-.32.03-.61.06-.94,0-.19.03-.39.03-.58l148.3-13.3c.91-.19,1.82-.26,2.76-.26,14.48,0,26.82,18.63,31.72,44.01Z"/>
      <path class="cls-5" d="M787.93,819.7c-9.58-3.49-19.71-7.17-30.22-10.88-10.16-3.58-20.68-7.27-31.39-10.91-31.33-10.62-64.28-21.09-94.63-29.29,6.14-15.21,12.73-30.09,19.7-44.66l118.56,37.2c15.32,4.23,22.21,29.42,17.99,58.54Z"/>
      <path class="cls-5" d="M1376.21,733.81c-8.86,2.84-18.63,6.3-28.37,10.4-9.38,3.94-18.76,8.49-27.33,13.63-.42.23-.81.48-1.2.71-6.43-15.85-13.28-31.03-20.52-45.5l33.31-9.3c14.25-5.49,32.98,7.68,44.12,30.06Z"/>
      <path class="cls-5" d="M1445.78,1030.84c-9.22,1.42-19.28,3.16-29.48,5.26-10.97,2.29-22.11,5.04-32.59,8.27-.84.26-1.69.52-2.53.81-.88-13.98-2.05-27.77-3.47-41.43l35.61-3.03,2.79-.23c12.63-.06,23.73,12.37,29.67,30.35Z"/>
      <path class="cls-5" d="M1411.34,1413.8c-6.98-3.97-16-8.95-26.07-14.11-7.99-4.07-16.69-8.27-25.52-12.17-3.08-1.39-6.17-2.68-9.25-3.94,3.15-11.75,6.07-23.77,8.76-36l38.27,20.54c13.05,5.04,18.28,24.09,13.8,45.69Z"/>
      <path class="cls-6" d="M1174.19,1746.74c-.49.19-1.01.39-1.49.58.58-9.98,1.01-21.31,1.01-33.29,0-9.49-.29-19.41-.94-29.38-.23-3.2-.49-6.42-.78-9.65,9.02-5.43,17.86-11.72,26.49-18.73l12.56,42.69c6.33,15.6-10.16,36.97-36.85,47.79Z"/>
      <path class="cls-5" d="M1137.67,1728.59c-.88,8.56-2.31,16.44-3.8,23.18-9.51-1.94-16.69-6.62-19.61-13.72l-18.25-36.84c3.34-.32,6.66-.74,9.97-1.29,10.65-1.68,21.2-4.42,31.52-8.23.23,1.71.42,3.45.55,5.17,1.01,11.01.65,21.83-.39,31.74Z"/>
      <path class="cls-6" d="M915.35,1661.14l-74.83,84.66c-8.25-5.94-16.43-12.27-24.51-18.96,8.73-25.31,26.23-50.86,45.13-73.23,7.04-8.3,14.28-16.21,21.33-23.47,7.95-8.23,15.68-15.69,22.66-22.12,15.1,20.96,20.19,42.65,10.23,53.12Z"/>
      <path class="cls-6" d="M769.95,1447.87l-128.2,40.23c-6.53-14.69-12.66-29.68-18.37-44.95,23.47-15.21,62.14-27.77,100.57-37.39,11.2-2.81,22.4-5.39,33.21-7.72,10.91-2.33,21.43-4.42,31.1-6.23,3.5,28.06-3.44,51.95-18.31,56.05Z"/>
      <path class="cls-6" d="M751.67,1121.16c-3.77,28.8-17.04,50.47-32.89,50.47-.19,0-150.63,16.98-150.63,16.98-.16-2.07-.29-4.13-.46-6.17-1.1-16.27-1.79-32.61-2.11-49.02,28.47-8.2,76.22-11.3,120.28-12.2,11.36-.26,22.46-.36,32.92-.36,11.98,0,23.15.13,32.89.29Z"/>
      <path class="cls-6" d="M771.64,866.1c-10.32,16.98-23.57,27.29-35.26,25.83-.94-.13-1.69-.26-2.47-.48-1.01-.29-1.98-.65-2.92-1.1l-128.52-37.46c5.1-17.6,10.71-34.87,16.82-51.86,30.29,7.17,64.31,20.96,95.96,36,10.78,5.1,21.26,10.37,31.23,15.56,8.83,4.59,17.27,9.14,25.16,13.5Z"/>
      <path class="cls-6" d="M1369.75,800.62l-29.28,17.24c-4.16-13.33-8.57-26.35-13.24-38.94.75-.48,1.52-.94,2.3-1.36,7.99-4.62,16.95-9.14,26.07-13.4,9.22-4.26,18.6-8.27,27.4-11.82,5.45,22.63.32,43.04-13.25,48.27Z"/>
      <path class="cls-6" d="M1447.92,1083.06c-5.03,21.25-17.04,36.42-31.13,36.49-.1,0-33.28,3.49-33.28,3.49.03-1.62.03-3.23.03-4.84,0-10.27-.13-20.5-.39-30.64,1.01-.16,2.04-.32,3.12-.48,9.35-1.36,19.64-2.29,30.32-2.94,10.29-.61,20.94-.94,31.33-1.07Z"/>
      <path class="cls-6" d="M1389.36,1455.29c-9.58,9.14-20.42,13.17-29.48,9.69l-31.46-10.82c3.67-10.04,7.21-20.34,10.52-30.84,2.01.94,4.03,1.91,6.04,2.94,8.34,4.23,16.56,9.17,24.35,14.43,7.08,4.75,13.83,9.72,20.03,14.59Z"/>
      <path class="cls-6" d="M904.35,602.04c-7.82-6.52-15.58-13.95-23.15-21.96-7.21-7.62-14.25-15.73-21-24.06-14.67-18.05-28.05-37.07-39.15-53.92.42-.32.84-.68,1.27-1,14.41-4.58,28.86-7.75,43.34-9.43l49.7,56.22c10.13,10.62,4.71,32.87-11.01,54.15Z"/>
      <path class="cls-5" d="M851.3,643.4c-14.64,5.23-27.53,4.81-34.57-2.58l-65.42-71.2c8.76-10.14,17.79-19.79,26.98-29.03,10.68,19.41,24.15,41.88,39.15,62.67,5.32,7.39,10.84,14.59,16.49,21.34,5.68,6.75,11.46,13.08,17.37,18.79Z"/>
      <path class="cls-5" d="M1151.5,486.57c-4.38,8.04-8.89,17.08-12.82,26.96-3.47,8.65-6.49,17.92-8.6,27.67-.06.26-.13.55-.19.84-7.86-2.49-15.84-4.39-23.89-5.65-5.26-.84-10.55-1.42-15.87-1.68l14.61-32.03c4.38-13.59,24.12-19.89,46.78-16.11Z"/>
      <path class="cls-6" d="M1204.15,534.42l-8.57,43.37c-8.9-7.04-18.02-13.3-27.34-18.66.62-2.52,1.23-5.04,1.92-7.49,2.5-8.88,5.49-17.37,8.77-25.25,3.44-8.46,7.21-16.27,10.84-23.18,11.69,9.46,17.63,21.15,14.38,31.22Z"/>
      <path class="cls-6" d="M1205.03,1458.46l-.62-.52c.39-.03.62.52.62.52Z"/>
    </g>
  </g>
</svg>