<?xml version="1.0" encoding="UTF-8"?>
<svg id="Layer_2" data-name="Layer 2" xmlns="http://www.w3.org/2000/svg" viewBox="0 0 2211.41 2080.63">
  <defs>
    <style>
      .cls-1, .cls-2, .cls-3, .cls-4 {
        fill: #fff;
      }

      .cls-1, .cls-5, .cls-6 {
        opacity: .2;
      }

      .cls-7 {
        opacity: .05;
      }

      .cls-8 {
        fill: #434747;
      }

      .cls-9, .cls-4, .cls-10 {
        opacity: .1;
      }

      .cls-9, .cls-6 {
        fill: #1a1a1a;
      }

      .cls-11, .cls-3 {
        opacity: .3;
      }

      .cls-12, .cls-13 {
        fill: #4d4d4d;
      }

      .cls-14 {
        fill: #313333;
      }

      .cls-15 {
        fill: #bababa;
      }

      .cls-16 {
        fill: #666;
      }

      .cls-17 {
        fill: #999;
      }

      .cls-13 {
        opacity: .7;
      }

      .cls-18 {
        fill: #ccc;
      }

      .cls-19 {
        fill: #575b5b;
      }

      .cls-20 {
        fill: gray;
      }
    </style>
  </defs>
  <g id="Layer_2-2" data-name="Layer 2">
    <g>
      <rect class="cls-20" width="2211.41" height="2080.63"/>
      <path class="cls-4" d="M2211.41,0v500.45C1460.6,285.22,492.23,652.75,0,880.41V0h2211.41Z"/>
      <path class="cls-7" d="M2211.41,1273.07v807.56H0v-452.63c270.96-129.31,1185.2-512.79,2211.41-354.93Z"/>
      <ellipse class="cls-9" cx="1105.7" cy="1040.32" rx="990.8" ry="970.21"/>
      <ellipse class="cls-19" cx="1105.71" cy="1040.32" rx="973.69" ry="953.45"/>
      <path class="cls-17" d="M2050.52,1045.5c0,510.97-423,925.18-944.81,925.18-225.25,0-432.11-77.19-594.48-206.08-151.56-120.23-264.29-285.5-317.1-475-21.69-77.75-33.24-159.62-33.24-244.1,0-510.97,423-925.18,944.81-925.18,224.77,0,431.18,76.84,593.39,205.2,136.32,107.85,241.39,252.04,299.77,417.57,33.49,94.75,51.65,196.5,51.65,302.4Z"/>
      <path class="cls-4" d="M1699.09,325.53c-462.97,84.22-1205.29,318.2-1504.97,964.07-21.69-77.75-33.24-159.62-33.24-244.1,0-510.97,423-925.18,944.81-925.18,224.77,0,431.18,76.84,593.39,205.2Z"/>
      <polygon class="cls-6" points="2066.91 651.86 409.88 651.86 409.88 618.88 336.09 618.88 336.09 651.86 153.22 651.86 153.22 618.88 79.43 618.88 79.43 736.05 153.22 736.05 153.22 703.07 336.09 703.07 336.09 736.05 409.88 736.05 409.88 703.07 2066.91 703.07 2066.91 651.86"/>
      <polygon class="cls-6" points="2068.97 1405.67 411.93 1405.67 411.93 1372.69 338.14 1372.69 338.14 1405.67 155.28 1405.67 155.28 1372.69 81.49 1372.69 81.49 1489.87 155.28 1489.87 155.28 1456.88 338.14 1456.88 338.14 1489.87 411.93 1489.87 411.93 1456.88 2068.97 1456.88 2068.97 1405.67"/>
      <path class="cls-7" d="M2050.52,1045.5c0,510.97-423,925.18-944.81,925.18-225.25,0-432.11-77.19-594.48-206.08,347.64-666.91,1114.34-930.02,1487.64-1021.5,33.49,94.75,51.65,196.5,51.65,302.4Z"/>
      <path class="cls-6" d="M1221.07,1336.13c-25.09-29.44-62.82-48.19-105-48.19-49.26,0-92.41,25.55-116.44,63.84h-303.35v-589.66h323.1c2.42,2.38,4.91,4.71,7.51,6.91,16.07,13.57,35.39,23.53,56.66,28.62,10.43,2.51,21.34,3.83,32.53,3.83,75.42,0,136.57-59.91,136.57-133.77,0-13.19-1.96-25.95-5.61-38.01-7.54-25.04-22.39-47-42.09-63.52-23.87-20.11-54.92-32.2-88.87-32.2-49.26,0-92.41,25.55-116.44,63.84h-303.35v-302.56h-382.49v-133.64c0-20.39-16.88-36.91-37.7-36.91h-43.41c-20.82,0-37.7,16.52-37.7,36.91v335.45c0,20.39,16.87,36.91,37.7,36.91h43.41c2.34,0,4.62-.22,6.87-.63,16.91-3.03,29.82-17.12,30.74-34.33h168.91v1126.24h-168.82v-22.56c0-11.06-4.97-20.99-12.87-27.77-6.64-5.69-15.34-9.14-24.83-9.14h-43.41c-20.82,0-37.7,16.52-37.7,36.91v335.45c0,20.39,16.87,36.91,37.7,36.91h43.41c8.08,0,15.59-2.51,21.75-6.79,9.66-6.66,15.94-17.69,15.94-30.13v-109.14h382.49v-312.93h323.04c12.91,12.69,28.41,22.86,45.65,29.69,15.78,6.22,33.01,9.68,51.11,9.68,1.76,0,3.53-.03,5.29-.13,72.99-2.7,131.28-61.51,131.28-133.64,0-5.47-.32-10.84-1-16.12-3.21-26.23-14.18-50.14-30.57-69.43Z"/>
      <path class="cls-16" d="M1762.91,1039.53v.79c0,107.91-89.32,195.37-199.49,195.37-46.33,0-88.96-15.46-122.84-41.41-33.04-25.29-57.71-60.6-69.3-101.25-4.81-16.78-7.38-34.43-7.38-52.71,0-107.88,89.32-195.37,199.52-195.37,69.01,0,129.8,34.3,165.64,86.45,21.24,30.91,33.69,68.11,33.85,108.13Z"/>
      <path class="cls-8" d="M279.69,157.23v335.45c0,18.1-13.28,33.14-30.83,36.28-2.25.41-4.52.63-6.87.63h-43.41c-20.82,0-37.7-16.52-37.7-36.91V157.23c0-20.39,16.88-36.91,37.7-36.91h43.41c20.82,0,37.7,16.52,37.7,36.91Z"/>
      <path class="cls-6" d="M2190.43,651.21v43.35c0,20.39-16.88,36.91-37.7,36.91h-85.82v-117.18h85.82c19.79,0,36.03,14.95,37.57,33.96.1.97.13,1.95.13,2.95Z"/>
      <path class="cls-8" d="M279.69,1598.31v335.45c0,12.44-6.29,23.47-15.94,30.13-6.16,4.27-13.67,6.79-21.75,6.79h-43.41c-20.82,0-37.7-16.52-37.7-36.91v-335.45c0-20.39,16.88-36.91,37.7-36.91h43.41c9.5,0,18.19,3.46,24.83,9.14,7.89,6.79,12.86,16.71,12.86,27.77Z"/>
      <path class="cls-8" d="M1112.86,581.18v164.3h-433.78v589.66h422.17v164.3h-422.17v312.93h-399.39v-203.76h199.71V482.38h-199.71v-203.76h399.39v302.56h433.78Z"/>
      <path class="cls-8" d="M2174.04,641.66v43.35c0,20.39-16.88,36.91-37.7,36.91h-85.82v-117.18h85.82c19.79,0,36.03,14.95,37.57,33.96.1.97.13,1.95.13,2.95Z"/>
      <path class="cls-6" d="M2190.43,1405.18v43.35c0,2.73-.32,5.4-.9,7.98-3.72,16.56-18.77,28.93-36.8,28.93h-85.82v-117.18h85.82c20.82,0,37.7,16.52,37.7,36.91Z"/>
      <path class="cls-8" d="M2174.04,1395.62v43.35c0,2.73-.32,5.4-.9,7.98-3.72,16.56-18.77,28.93-36.8,28.93h-85.82v-117.18h85.82c20.82,0,37.7,16.53,37.7,36.91Z"/>
      <rect class="cls-18" x="99.93" y="637.73" width="1950.59" height="51.21"/>
      <path class="cls-9" d="M1101.25,1497.6v1.85h-422.17v312.93h-399.39v-56.14c118.51-3.08,307.38-14.29,347.99-54.1,40.94-40.09,16.04-171.28,16.04-226.25,0-48.94,330.7-79.98,457.52,21.71Z"/>
      <path class="cls-4" d="M199.23,529.6h-.64c-20.82,0-37.7-16.52-37.7-36.91V157.23c0-20.39,16.88-36.91,37.7-36.91h4.2c-11.26,105.84-30.19,325.46-3.56,409.28Z"/>
      <path class="cls-9" d="M279.69,157.23v335.45c0,18.1-13.28,33.14-30.83,36.28-39.56-84.16-21.94-306.71-11.2-408.65h4.33c20.82,0,37.7,16.52,37.7,36.91Z"/>
      <path class="cls-4" d="M219.28,1970.68h-20.69c-20.82,0-37.7-16.52-37.7-36.91v-335.45c0-20.39,16.88-36.91,37.7-36.91h34.36c-9.05,78.76-31.6,299.61-13.67,409.28Z"/>
      <path class="cls-9" d="M279.69,1598.31v335.45c0,12.44-6.29,23.47-15.94,30.13-25.44-108.6-5.84-314.69,3.08-393.35,7.89,6.79,12.86,16.71,12.86,27.77Z"/>
      <path class="cls-4" d="M2173.91,638.7c-44.43-2.8-91.95,8.17-123.39,17.62v-51.58h85.82c19.79,0,36.03,14.95,37.57,33.96Z"/>
      <path class="cls-9" d="M2174.04,684.51v.5c0,20.39-16.88,36.91-37.7,36.91h-85.82v-23.25c26.63-8.14,77.45-20.51,123.52-14.17Z"/>
      <path class="cls-4" d="M2174.04,1395.62v4.27c-41.64-6.5-88.51,1.66-123.52,10.81v-51.99h85.82c20.82,0,37.7,16.53,37.7,36.91Z"/>
      <path class="cls-9" d="M2173.14,1446.96c-3.72,16.56-18.77,28.93-36.8,28.93h-85.82v-22.84c32.4-8.33,81.07-16.56,122.62-6.09Z"/>
      <path class="cls-4" d="M679.08,278.62v83.3c-134.84-38.87-315.3-17.06-399.39-3.25v-80.04h399.39Z"/>
      <path class="cls-4" d="M1112.86,581.18v99.05c-149.37-71.53-433.78-99.05-433.78-99.05h433.78Z"/>
      <path class="cls-4" d="M1101.25,1335.15v109.67c-101.38-108.35-406.74-109.67-421.59-109.67h421.59Z"/>
      <path class="cls-4" d="M479.4,1608.62s-82.42,44.14-199.71,59.97v-59.97h199.71Z"/>
      <path class="cls-9" d="M479.4,482.38h-199.71v-45.49c49.09-2.89,150.88-2.32,199.71,45.49Z"/>
      <path class="cls-4" d="M479.4,1608.62V482.38s95.54,704.49,0,1126.24Z"/>
      <path class="cls-9" d="M679.08,745.48v589.66c-67.28-152.77-49.12-606.28-31.09-623.94,175.94-21.52,340.39,7.95,442.03,34.27h-410.94Z"/>
      <rect class="cls-18" x="99.93" y="1391.7" width="1950.59" height="51.21"/>
      <path class="cls-4" d="M2050.52,1391.7v18.31c-447.19-5.25-1554.66-15.27-1950.59,8.33v-26.64h1950.59Z"/>
      <path class="cls-9" d="M2050.52,1434.96v7.95H99.93v-7.67c425.57-29.44,1509.65-9.9,1950.59-.28Z"/>
      <path class="cls-4" d="M2050.52,637.73v19.1c-403.56-4.87-1510.26-15.77-1950.59,5.62v-24.72h1950.59Z"/>
      <path class="cls-9" d="M2050.52,682.21v6.72H99.93v-9.9c465.29-26.58,1551.81-5.78,1950.59,3.17Z"/>
      <g>
        <path class="cls-16" d="M1242.28,1417.3c0,72.13-58.29,130.94-131.28,133.64-1.76.09-3.53.13-5.29.13-18.09,0-35.32-3.46-51.11-9.68-50.11-19.82-85.47-67.92-85.47-124.09,0-73.86,61.15-133.73,136.57-133.73,42.19,0,79.92,18.76,105,48.19,16.39,19.29,27.37,43.2,30.57,69.43.67,5.28.99,10.65.99,16.12Z"/>
        <path class="cls-4" d="M1054.6,1541.39c-50.11-19.82-85.47-67.92-85.47-124.09,0-73.86,61.15-133.73,136.57-133.73,42.19,0,79.92,18.76,105,48.19-78.12,23.25-168.27,78.47-156.11,209.63Z"/>
        <path class="cls-9" d="M1242.28,1417.3c0,72.13-58.29,130.94-131.28,133.64,8.28-80.96,71.03-125.5,130.29-149.76.67,5.28.99,10.65.99,16.12Z"/>
      </g>
      <g>
        <rect class="cls-8" x="319.7" y="1358.71" width="73.79" height="117.18"/>
        <rect class="cls-8" x="63.04" y="1358.71" width="73.79" height="117.18"/>
        <path class="cls-4" d="M93.87,1475.89h-30.83v-117.18h32.24c-5.87,27.93-13.8,80.08-1.41,117.18Z"/>
        <path class="cls-9" d="M136.83,1358.71v117.18h-17.07c-7.99-33.24-4.36-85.04-.87-117.18h17.93Z"/>
        <path class="cls-4" d="M344.82,1475.89h-25.12v-117.18h28.23c-5.71,26.23-14.47,78.82-3.11,117.18Z"/>
        <path class="cls-9" d="M393.49,1358.71v117.18h-22.52c-7.25-34.46-3.24-86.36.26-117.18h22.27Z"/>
      </g>
      <rect class="cls-8" x="319.7" y="604.74" width="73.79" height="117.18"/>
      <rect class="cls-8" x="63.04" y="604.74" width="73.79" height="117.18"/>
      <path class="cls-4" d="M354.92,721.92h-35.23v-117.18h39.27c-5.65,25.13-14.89,78.1-4.04,117.18Z"/>
      <path class="cls-9" d="M393.49,604.74v117.18h-12.29c-6.9-35.15-2.66-87.15.8-117.18h11.49Z"/>
      <path class="cls-4" d="M80.62,721.92h-17.58v-117.18h21.62c-5.65,25.13-14.89,78.1-4.04,117.18Z"/>
      <path class="cls-9" d="M136.83,604.74v117.18h-29.93c-6.9-35.15-2.66-87.15.8-117.18h29.13Z"/>
      <path class="cls-16" d="M1242.28,663.33c0,73.86-61.15,133.77-136.57,133.77-11.2,0-22.1-1.32-32.53-3.83-21.27-5.09-40.58-15.05-56.66-28.62-29-24.54-47.38-60.82-47.38-101.31,0-73.86,61.15-133.74,136.57-133.74,33.94,0,65,12.1,88.87,32.2,19.7,16.52,34.55,38.48,42.09,63.52,3.66,12.06,5.61,24.82,5.61,38.01Z"/>
      <path class="cls-4" d="M1016.52,764.65c-29-24.54-47.38-60.82-47.38-101.31,0-73.86,61.15-133.74,136.57-133.74,33.94,0,65,12.1,88.87,32.2-79.37,18.82-184.09,68.99-178.06,202.85Z"/>
      <path class="cls-9" d="M1242.28,663.33c0,73.86-61.15,133.77-136.57,133.77-11.2,0-22.1-1.32-32.53-3.83,6.48-100.72,95.51-147.12,163.49-167.95,3.66,12.06,5.61,24.82,5.61,38.01Z"/>
      <g>
        <path class="cls-9" d="M1105.8,242.78c-10.07,0-19.65-3-27.71-8.68-12.76-8.71-20.42-23.1-20.42-38.45,0-25.99,21.59-47.13,48.13-47.13,10.64,0,20.74,3.38,29.23,9.77,5,3.68,9.31,8.46,12.39,13.8,4.24,7.06,6.51,15.23,6.51,23.56,0,25.38-21.08,46.52-46.99,47.13-.07,0-1.14,0-1.14,0Z"/>
        <path class="cls-18" d="M1147.51,195.66c0,22.14-18.2,40.32-40.72,40.85h-.99c-8.92,0-17.21-2.73-23.96-7.5-10.72-7.32-17.75-19.58-17.75-33.35,0-22.5,18.74-40.85,41.71-40.85,9.55,0,18.29,3.18,25.32,8.47,4.32,3.18,8.02,7.23,10.72,11.91,3.6,6,5.68,12.97,5.68,20.47Z"/>
        <path class="cls-4" d="M1105.8,154.81c9.55,0,18.29,3.18,25.32,8.47-41.66-5.19-65.71,42.57-49.28,65.72-10.72-7.32-17.75-19.58-17.75-33.35,0-22.5,18.74-40.85,41.71-40.85Z"/>
        <path class="cls-10" d="M1147.51,195.66c0,22.14-18.2,40.32-40.72,40.85,22.71-16.44,33.67-32.41,35.05-61.31,3.6,6,5.68,12.97,5.68,20.47Z"/>
      </g>
      <g>
        <path class="cls-9" d="M852.47,282.05c-9.58,3.05-19.64,3.09-29.1.13-14.88-4.42-26.71-15.8-31.55-30.39-8.2-24.71,5.66-51.36,30.9-59.39,10.12-3.22,20.79-3.06,30.88.45,5.92,1.98,11.52,5.23,16.14,9.37,6.26,5.43,11,12.52,13.62,20.44,8.01,24.14-5.37,50.62-29.81,59.04-.07.03-1.09.35-1.09.35Z"/>
        <path class="cls-18" d="M877.27,224.6c6.99,21.06-4.59,43.85-25.84,51.17l-.94.3c-8.48,2.7-17.23,2.61-25.16.12-12.51-3.72-23.06-13.26-27.4-26.34-7.1-21.4,4.93-44.52,26.78-51.47,9.08-2.89,18.4-2.51,26.75.39,5.11,1.71,9.91,4.45,13.95,8.08,5.32,4.61,9.49,10.62,11.86,17.75Z"/>
        <path class="cls-4" d="M824.71,198.38c9.08-2.89,18.4-2.51,26.75.39-41.26,7.67-49.06,60.37-26.13,77.42-12.51-3.72-23.06-13.26-27.4-26.34-7.1-21.4,4.93-44.52,26.78-51.47Z"/>
        <path class="cls-10" d="M877.27,224.6c6.99,21.06-4.59,43.85-25.84,51.17,16.41-22.51,21.8-41.01,13.98-68.92,5.32,4.61,9.49,10.62,11.86,17.75Z"/>
      </g>
      <g>
        <path class="cls-9" d="M375.61,584.22c-8.19-5.74-14.2-13.64-17.37-22.86-5.19-14.36-2.87-30.42,6.26-42.9,15.45-21.13,45.57-26.01,67.15-10.88,8.65,6.06,14.86,14.57,17.96,24.61,1.88,5.84,2.54,12.19,1.87,18.28-.75,8.15-3.77,16.1-8.72,22.87-15.09,20.63-44.79,25.81-66.22,11.53-.06-.04-.93-.65-.93-.65Z"/>
        <path class="cls-18" d="M437.54,569.68c-13.16,18-38.77,22.41-57.39,10l-.81-.56c-7.25-5.08-12.37-12.03-15.03-19.76-4.36-12.06-2.79-26.04,5.39-37.23,13.37-18.29,39.52-22.53,58.2-9.43,7.77,5.44,12.98,13.01,15.55,21.32,1.63,5.05,2.22,10.45,1.64,15.8-.64,6.93-3.09,13.78-7.55,19.88Z"/>
        <path class="cls-4" d="M427.91,512.69c7.77,5.44,12.98,13.01,15.55,21.32-30.79-27.97-78.73-2.85-79.14,25.35-4.36-12.06-2.79-26.04,5.39-37.23,13.37-18.29,39.52-22.53,58.2-9.43Z"/>
        <path class="cls-10" d="M437.54,569.68c-13.16,18-38.77,22.41-57.39,10,28.24-.42,46.65-7.15,64.95-29.87-.64,6.93-3.09,13.78-7.55,19.88Z"/>
      </g>
      <g>
        <path class="cls-9" d="M253.76,822.1c-8.4-5.44-14.69-13.13-18.21-22.22-5.73-14.16-4-30.3,4.65-43.1,14.65-21.67,44.57-27.63,66.7-13.29,8.87,5.75,15.39,14.03,18.87,23.95,2.1,5.77,2.99,12.09,2.56,18.2-.44,8.18-3.16,16.22-7.86,23.17-14.3,21.16-43.8,27.4-65.74,13.9-.06-.04-.96-.62-.96-.62Z"/>
        <path class="cls-18" d="M315.11,805.35c-12.48,18.46-37.9,23.78-56.98,12.05l-.83-.54c-7.44-4.82-12.81-11.58-15.76-19.21-4.81-11.9-3.76-25.92,4-37.4,12.68-18.76,38.65-23.93,57.81-11.51,7.96,5.16,13.46,12.53,16.34,20.75,1.82,4.99,2.61,10.37,2.23,15.73-.38,6.95-2.58,13.88-6.8,20.13Z"/>
        <path class="cls-4" d="M303.35,748.74c7.96,5.16,13.46,12.53,16.34,20.75-31.81-26.84-78.79-.02-78.14,28.17-4.81-11.9-3.76-25.92,4-37.4,12.68-18.76,38.65-23.93,57.81-11.51Z"/>
        <path class="cls-10" d="M315.11,805.35c-12.48,18.46-37.9,23.78-56.98,12.05,28.2-1.43,46.35-8.82,63.79-32.18-.38,6.95-2.58,13.88-6.8,20.13Z"/>
      </g>
      <g>
        <path class="cls-9" d="M212,1085.18c-8.5-5.29-14.94-12.86-18.62-21.89-5.99-14.05-4.57-30.23,3.84-43.17,14.24-21.93,44.05-28.42,66.44-14.48,8.98,5.59,15.65,13.75,19.31,23.61,2.2,5.73,3.22,12.03,2.9,18.15-.29,8.18-2.86,16.28-7.42,23.3-13.91,21.41-43.28,28.18-65.47,15.08-.06-.04-.97-.6-.97-.6Z"/>
        <path class="cls-18" d="M273.02,1067.33c-12.14,18.68-37.45,24.46-56.75,13.07l-.84-.52c-7.53-4.69-13.02-11.35-16.11-18.92-5.03-11.81-4.24-25.85,3.3-37.47,12.33-18.98,38.2-24.62,57.58-12.55,8.06,5.02,13.69,12.29,16.72,20.45,1.91,4.95,2.8,10.32,2.52,15.68-.25,6.96-2.32,13.92-6.43,20.25Z"/>
        <path class="cls-4" d="M260.21,1010.95c8.06,5.02,13.69,12.29,16.72,20.45-32.31-26.27-78.77,1.39-77.6,29.56-5.03-11.81-4.24-25.85,3.3-37.47,12.33-18.98,38.2-24.62,57.58-12.55Z"/>
        <path class="cls-10" d="M273.02,1067.33c-12.14,18.68-37.45,24.46-56.75,13.07,28.17-1.94,46.17-9.65,63.17-33.32-.25,6.96-2.32,13.92-6.43,20.25Z"/>
      </g>
      <g>
        <path class="cls-9" d="M286.99,1354.7c-9.97,1.38-19.89-.29-28.68-4.81-13.87-6.88-23.51-20.09-25.69-35.28-3.7-25.73,14.67-49.62,40.95-53.24,10.53-1.45,21.02.51,30.34,5.68,5.47,2.96,10.42,7.11,14.23,11.97,5.2,6.41,8.61,14.2,9.8,22.44,3.61,25.13-14.25,48.94-39.81,53.08-.07.01-1.13.16-1.13.16Z"/>
        <path class="cls-18" d="M321.58,1302.34c3.15,21.93-12.28,42.41-34.51,46.01l-.98.14c-8.83,1.22-17.43-.36-24.8-4.15-11.66-5.79-20.36-16.97-22.33-30.6-3.2-22.28,12.74-43.01,35.49-46.14,9.46-1.3,18.56.65,26.28,4.93,4.73,2.55,8.97,6.07,12.31,10.33,4.42,5.45,7.47,12.07,8.54,19.49Z"/>
        <path class="cls-4" d="M274.46,1267.59c9.46-1.3,18.56.65,26.28,4.93-41.99.55-59.01,51.12-39.44,71.81-11.66-5.79-20.36-16.97-22.33-30.6-3.2-22.28,12.74-43.01,35.49-46.14Z"/>
        <path class="cls-10" d="M321.58,1302.34c3.15,21.93-12.28,42.41-34.51,46.01,20.15-19.38,28.73-36.69,25.97-65.5,4.42,5.45,7.47,12.07,8.54,19.49Z"/>
      </g>
      <g>
        <path class="cls-9" d="M389.75,1590.11c-9.65-2.82-17.95-8.38-24.02-16.08-9.68-11.92-12.81-27.86-8.33-42.56,7.6-24.9,34.46-39.11,59.89-31.67,10.19,2.98,18.89,9.05,25.15,17.55,3.72,4.92,6.45,10.72,7.84,16.69,2,7.95,1.78,16.42-.65,24.4-7.42,24.32-33.79,38.67-58.79,31.99-.07-.02-1.1-.32-1.1-.32Z"/>
        <path class="cls-18" d="M443.49,1556.64c-6.47,21.22-29.22,33.53-50.96,27.73l-.95-.28c-8.55-2.5-15.69-7.44-20.77-13.9-8.13-10.02-11.28-23.74-7.26-36.93,6.58-21.56,29.89-33.89,51.91-27.45,9.15,2.68,16.6,8.17,21.78,15.21,3.21,4.26,5.57,9.18,6.79,14.42,1.7,6.76,1.65,14.02-.54,21.2Z"/>
        <path class="cls-4" d="M415.46,1505.82c9.15,2.68,16.6,8.17,21.78,15.21-38.4-16.65-75.4,22.37-66.43,49.17-8.13-10.02-11.28-23.74-7.26-36.93,6.58-21.56,29.89-33.89,51.91-27.45Z"/>
        <path class="cls-10" d="M443.49,1556.64c-6.47,21.22-29.22,33.53-50.96,27.73,26.57-9.39,41.74-21.62,51.5-48.93,1.7,6.76,1.65,14.02-.54,21.2Z"/>
      </g>
      <g>
        <path class="cls-9" d="M837.02,1900.85c-10.07-.08-19.63-3.17-27.63-8.91-12.68-8.82-20.22-23.27-20.08-38.62.23-25.99,22-46.95,48.54-46.72,10.64.09,20.71,3.55,29.14,10.02,4.97,3.72,9.23,8.54,12.27,13.9,4.18,7.09,6.37,15.29,6.3,23.62-.22,25.38-21.48,46.34-47.4,46.73-.08,0-1.14,0-1.14,0Z"/>
        <path class="cls-18" d="M879.14,1854.07c-.19,22.14-18.55,40.16-41.08,40.5h-.99c-8.92-.08-17.18-2.89-23.9-7.71-10.66-7.41-17.58-19.73-17.46-33.49.2-22.5,19.1-40.69,42.07-40.5,9.55.08,18.26,3.33,25.24,8.68,4.3,3.21,7.95,7.3,10.62,12,3.55,6.03,5.56,13.01,5.5,20.51Z"/>
        <path class="cls-4" d="M837.79,1812.88c9.55.08,18.26,3.33,25.24,8.68-41.61-5.54-66.08,42.01-49.85,65.31-10.66-7.41-17.58-19.73-17.46-33.49.2-22.5,19.1-40.69,42.07-40.5Z"/>
        <path class="cls-10" d="M879.14,1854.07c-.19,22.14-18.55,40.16-41.08,40.5,22.86-16.25,33.96-32.13,35.58-61.02,3.55,6.03,5.56,13.01,5.5,20.51Z"/>
      </g>
      <g>
        <path class="cls-9" d="M1108.39,1942.4c-10.06.57-19.8-1.89-28.18-7.1-13.25-7.98-21.74-21.91-22.65-37.23-1.53-25.94,18.78-48.27,45.27-49.77,10.62-.6,20.91,2.2,29.76,8.11,5.21,3.39,9.79,7.92,13.18,13.07,4.65,6.81,7.39,14.84,7.88,23.16,1.49,25.34-18.3,47.63-44.13,49.7-.07,0-1.14.07-1.14.07Z"/>
        <path class="cls-18" d="M1147.26,1892.99c1.3,22.11-15.8,41.28-38.25,43.08l-.99.06c-8.9.5-17.34-1.76-24.37-6.13-11.13-6.7-18.87-18.55-19.68-32.29-1.32-22.46,16.3-41.84,39.24-43.13,9.53-.54,18.45,2.14,25.77,7.03,4.5,2.93,8.43,6.77,11.4,11.29,3.95,5.79,6.43,12.63,6.87,20.11Z"/>
        <path class="cls-4" d="M1103.21,1854.57c9.53-.54,18.45,2.14,25.77,7.03-41.9-2.83-63.09,46.21-45.33,68.4-11.13-6.7-18.87-18.55-19.68-32.29-1.32-22.46,16.3-41.84,39.24-43.13Z"/>
        <path class="cls-10" d="M1147.26,1892.99c1.3,22.11-15.8,41.28-38.25,43.08,21.71-17.69,31.71-34.25,31.38-63.19,3.95,5.79,6.43,12.63,6.87,20.11Z"/>
      </g>
      <g>
        <path class="cls-9" d="M1383.27,1899.99c-9.88,1.94-19.87.84-28.91-3.18-14.26-6.08-24.66-18.72-27.74-33.77-5.22-25.48,11.71-50.37,37.73-55.48,10.43-2.05,21.02-.68,30.62,3.95,5.64,2.64,10.83,6.5,14.92,11.14,5.57,6.1,9.44,13.68,11.11,21.85,5.1,24.88-11.33,49.67-36.61,55.25-.07.02-1.12.22-1.12.22Z"/>
        <path class="cls-18" d="M1414.71,1845.75c4.45,21.71-9.75,43.03-31.73,47.89l-.97.19c-8.74,1.72-17.42.63-25-2.74-11.98-5.11-21.33-15.79-24.1-29.28-4.52-22.06,10.17-43.66,32.7-48.08,9.36-1.84,18.57-.41,26.52,3.43,4.88,2.28,9.31,5.55,12.9,9.61,4.74,5.19,8.17,11.62,9.67,18.98Z"/>
        <path class="cls-4" d="M1365.61,1813.73c9.36-1.84,18.57-.41,26.52,3.43-41.89,2.93-55.88,54.39-35.12,73.93-11.98-5.11-21.33-15.79-24.1-29.28-4.52-22.06,10.17-43.66,32.7-48.08Z"/>
        <path class="cls-10" d="M1414.71,1845.75c4.45,21.71-9.75,43.03-31.73,47.89,18.97-20.49,26.51-38.26,22.05-66.86,4.74,5.19,8.17,11.62,9.67,18.98Z"/>
      </g>
      <g>
        <path class="cls-9" d="M1621.72,1779.86c-10,1.22-19.88-.6-28.6-5.26-13.76-7.1-23.18-20.45-25.12-35.68-3.29-25.79,15.46-49.38,41.8-52.6,10.55-1.29,21.01.84,30.24,6.15,5.43,3.04,10.31,7.27,14.04,12.19,5.1,6.49,8.38,14.33,9.44,22.59,3.21,25.18-15.04,48.72-40.67,52.46-.07.01-1.14.14-1.14.14Z"/>
        <path class="cls-18" d="M1657.15,1728.03c2.8,21.97-12.96,42.21-35.24,45.47l-.98.12c-8.85,1.08-17.42-.63-24.73-4.54-11.56-5.97-20.09-17.28-21.83-30.94-2.84-22.32,13.43-42.8,36.23-45.59,9.48-1.16,18.55.93,26.19,5.33,4.69,2.63,8.87,6.21,12.14,10.52,4.33,5.52,7.27,12.18,8.22,19.62Z"/>
        <path class="cls-4" d="M1610.59,1692.56c9.48-1.16,18.55.93,26.19,5.33-41.99-.1-59.82,50.21-40.59,71.19-11.56-5.97-20.09-17.28-21.83-30.94-2.84-22.32,13.43-42.8,36.23-45.59Z"/>
        <path class="cls-10" d="M1657.15,1728.03c2.8,21.97-12.96,42.21-35.24,45.47,20.46-19.06,29.32-36.24,27.02-65.09,4.33,5.52,7.27,12.18,8.22,19.62Z"/>
      </g>
      <g>
        <path class="cls-9" d="M1837.92,1581.84c-7.85,6.18-17.24,9.71-27.16,10.23-15.52,1.03-30.7-5.49-40.51-17.45-16.62-20.26-13.31-49.98,7.38-66.26,8.29-6.52,18.33-10.09,29.04-10.31,6.25-.2,12.67.89,18.48,3.15,7.82,2.9,14.82,7.89,20.14,14.38,16.23,19.78,13.32,49.19-6.49,65.56-.06.05-.89.7-.89.7Z"/>
        <path class="cls-18" d="M1840.3,1519.52c14.16,17.26,11.6,42.59-5.62,56.82l-.77.61c-6.95,5.47-15.16,8.42-23.48,8.85-13.04.87-26.36-4.38-35.17-15.11-14.39-17.54-11.52-43.34,6.39-57.42,7.45-5.86,16.29-8.74,25.15-8.92,5.4-.18,10.88.72,15.98,2.71,6.65,2.47,12.72,6.63,17.51,12.47Z"/>
        <path class="cls-4" d="M1781.66,1513.26c7.45-5.86,16.29-8.74,25.15-8.92-35.8,21.5-24,73.48,3.62,81.46-13.04.87-26.36-4.38-35.17-15.11-14.39-17.54-11.52-43.34,6.39-57.42Z"/>
        <path class="cls-10" d="M1840.3,1519.52c14.16,17.26,11.6,42.59-5.62,56.82,7.19-26.74,5.52-45.92-11.89-69.29,6.65,2.47,12.72,6.63,17.51,12.47Z"/>
      </g>
      <g>
        <path class="cls-9" d="M1970.2,1335.65c-5.87,8.02-13.94,13.89-23.35,17-14.66,5.08-31.07,2.8-43.81-6.14-21.57-15.14-26.55-44.63-11.09-65.76,6.19-8.47,14.89-14.54,25.14-17.58,5.96-1.84,12.45-2.48,18.67-1.83,8.33.74,16.44,3.69,23.35,8.54,21.07,14.78,26.34,43.87,11.76,64.85-.04.06-.67.91-.67.91Z"/>
        <path class="cls-18" d="M1955.38,1275c18.38,12.9,22.87,37.97,10.19,56.21l-.58.79c-5.19,7.1-12.29,12.1-20.18,14.71-12.32,4.27-26.59,2.72-38.02-5.29-18.67-13.1-22.99-38.71-9.61-56.99,5.56-7.6,13.29-12.71,21.78-15.22,5.16-1.59,10.68-2.17,16.13-1.6,7.08.63,14.07,3.03,20.3,7.4Z"/>
        <path class="cls-4" d="M1897.17,1284.41c5.56-7.6,13.29-12.71,21.78-15.22-28.57,30.14-2.94,77.1,25.86,77.51-12.32,4.27-26.59,2.72-38.02-5.29-18.67-13.1-22.99-38.71-9.61-56.99Z"/>
        <path class="cls-10" d="M1955.38,1275c18.38,12.9,22.87,37.97,10.19,56.21-.42-27.65-7.29-45.68-30.49-63.61,7.08.63,14.07,3.03,20.3,7.4Z"/>
      </g>
      <g>
        <path class="cls-9" d="M2000.4,1084.73c-8.37,5.5-18.03,8.23-27.95,7.91-15.55-.28-30.1-8.05-38.83-20.79-14.78-21.58-8.88-50.92,13.16-65.39,8.83-5.8,19.15-8.51,29.83-7.83,6.24.33,12.54,1.95,18.14,4.7,7.53,3.55,14.07,9.1,18.81,16.02,14.44,21.08,8.96,50.13-12.21,64.77-.06.04-.95.63-.95.63Z"/>
        <path class="cls-18" d="M2008.23,1022.84c12.6,18.39,7.82,43.41-10.58,56.13l-.82.54c-7.41,4.86-15.85,7.12-24.17,6.84-13.07-.23-25.88-6.58-33.71-18.01-12.8-18.68-7.67-44.14,11.4-56.68,7.93-5.21,17-7.34,25.84-6.78,5.4.28,10.77,1.63,15.68,4.04,6.41,3.02,12.09,7.67,16.36,13.9Z"/>
        <path class="cls-4" d="M1950.35,1011.67c7.93-5.21,17-7.34,25.84-6.78-37.55,18.41-30.36,71.19-3.54,81.46-13.07-.23-25.88-6.58-33.71-18.01-12.8-18.68-7.67-44.14,11.4-56.68Z"/>
        <path class="cls-10" d="M2008.23,1022.84c12.6,18.39,7.82,43.41-10.58,56.13,9.51-26.04,9.53-45.28-5.78-70.04,6.41,3.02,12.09,7.67,16.36,13.9Z"/>
      </g>
      <g>
        <path class="cls-9" d="M1958.94,821.44c-8.22,5.7-17.81,8.67-27.74,8.59-15.55.11-30.3-7.31-39.35-19.83-15.33-21.21-10.18-50.68,11.48-65.7,8.68-6.02,18.93-8.97,29.63-8.56,6.25.17,12.59,1.64,18.25,4.25,7.62,3.36,14.3,8.76,19.21,15.55,14.97,20.72,10.24,49.9-10.55,65.05-.06.04-.93.65-.93.65Z"/>
        <path class="cls-18" d="M1965.19,759.37c13.06,18.08,8.93,43.2-9.14,56.38l-.81.56c-7.28,5.04-15.66,7.5-23.99,7.43-13.07.09-26.04-5.95-34.16-17.18-13.27-18.36-8.8-43.94,9.95-56.94,7.79-5.4,16.8-7.75,25.66-7.41,5.4.15,10.81,1.37,15.78,3.66,6.48,2.86,12.28,7.38,16.71,13.5Z"/>
        <path class="cls-4" d="M1907.04,749.63c7.79-5.4,16.8-7.75,25.66-7.41-37.07,19.33-28.53,71.92-1.45,81.53-13.07.09-26.04-5.95-34.16-17.18-13.27-18.36-8.8-43.94,9.95-56.94Z"/>
        <path class="cls-10" d="M1965.19,759.37c13.06,18.08,8.93,43.2-9.14,56.38,8.84-26.27,8.37-45.5-7.56-69.87,6.48,2.86,12.28,7.38,16.71,13.5Z"/>
      </g>
      <g>
        <path class="cls-9" d="M1835.23,584.83c-8.29,5.6-17.92,8.46-27.84,8.27-15.55-.07-30.21-7.65-39.11-20.28-15.08-21.39-9.58-50.8,12.26-65.56,8.75-5.92,19.03-8.76,29.72-8.22,6.25.24,12.57,1.78,18.2,4.46,7.58,3.45,14.19,8.92,19.03,15.77,14.72,20.88,9.64,50.01-11.32,64.92-.06.04-.94.64-.94.64Z"/>
        <path class="cls-18" d="M1842.22,522.84c12.85,18.22,8.41,43.3-9.81,56.27l-.82.55c-7.34,4.96-15.75,7.32-24.07,7.16-13.07-.06-25.97-6.24-33.95-17.57-13.05-18.51-8.28-44.04,10.63-56.82,7.86-5.31,16.89-7.56,25.75-7.11,5.4.21,10.8,1.49,15.73,3.84,6.45,2.93,12.19,7.51,16.55,13.69Z"/>
        <path class="cls-4" d="M1784.19,512.43c7.86-5.31,16.89-7.56,25.75-7.11-37.29,18.9-29.38,71.59-2.42,81.5-13.07-.06-25.97-6.24-33.95-17.57-13.05-18.51-8.28-44.04,10.63-56.82Z"/>
        <path class="cls-10" d="M1842.22,522.84c12.85,18.22,8.41,43.3-9.81,56.27,9.15-26.16,8.91-45.4-6.73-69.96,6.45,2.93,12.19,7.51,16.55,13.69Z"/>
      </g>
      <g>
        <path class="cls-9" d="M1652.17,389c-6.62,7.43-15.23,12.53-24.9,14.74-15.09,3.69-31.2-.13-43.01-10.21-20-17.09-22.07-46.91-4.62-66.5,6.99-7.85,16.24-13.08,26.74-15.14,6.12-1.27,12.63-1.31,18.76-.07,8.22,1.51,16,5.22,22.41,10.69,19.53,16.69,21.94,46.14,5.37,65.65-.05.06-.75.84-.75.84Z"/>
        <path class="cls-18" d="M1643.33,327.24c17.04,14.56,19.06,39.93,4.66,56.9l-.65.73c-5.86,6.58-13.42,10.9-21.53,12.75-12.68,3.1-26.74.22-37.33-8.83-17.31-14.79-19.11-40.68-4-57.63,6.28-7.05,14.47-11.41,23.16-13.11,5.29-1.1,10.84-1.16,16.21-.08,6.99,1.29,13.71,4.34,19.48,9.27Z"/>
        <path class="cls-4" d="M1584.48,331.16c6.28-7.05,14.47-11.41,23.16-13.11-31.38,27.32-10.45,76.47,18.17,79.57-12.68,3.1-26.74.22-37.33-8.83-17.31-14.79-19.11-40.68-4-57.63Z"/>
        <path class="cls-10" d="M1643.33,327.24c17.04,14.56,19.06,39.93,4.66,56.9,2.28-27.57-2.8-46.15-24.14-66.17,6.99,1.29,13.71,4.34,19.48,9.27Z"/>
      </g>
      <g>
        <path class="cls-9" d="M1359.11,282.1c-9.58-3.05-17.74-8.8-23.62-16.64-9.38-12.14-12.13-28.15-7.29-42.74,8.2-24.71,35.41-38.29,60.65-30.26,10.12,3.22,18.66,9.49,24.72,18.14,3.6,5.01,6.18,10.86,7.43,16.87,1.8,7.99,1.38,16.46-1.25,24.38-8.01,24.14-34.73,37.86-59.56,30.6-.07-.02-1.09-.34-1.09-.34Z"/>
        <path class="cls-18" d="M1413.65,249.9c-6.99,21.06-30.03,32.84-51.62,26.52l-.94-.3c-8.48-2.7-15.5-7.81-20.43-14.38-7.89-10.21-10.7-24-6.36-37.09,7.1-21.4,30.71-33.18,52.56-26.23,9.08,2.89,16.39,8.55,21.4,15.72,3.11,4.33,5.34,9.31,6.44,14.57,1.53,6.8,1.31,14.05-1.06,21.18Z"/>
        <path class="cls-4" d="M1386.87,198.43c9.08,2.89,16.39,8.55,21.4,15.72-37.98-17.54-75.93,20.6-67.61,47.6-7.89-10.21-10.7-24-6.36-37.09,7.1-21.4,30.71-33.18,52.56-26.23Z"/>
        <path class="cls-10" d="M1413.65,249.9c-6.99,21.06-30.03,32.84-51.62,26.52,26.79-8.76,42.25-20.63,52.68-47.71,1.53,6.8,1.31,14.05-1.06,21.18Z"/>
      </g>
      <g>
        <g>
          <path class="cls-9" d="M2129.09,123.42c-9.66,0-18.86-2.88-26.59-8.33-12.24-8.36-19.59-22.17-19.59-36.89,0-24.93,20.71-45.22,46.18-45.22,10.2,0,19.9,3.24,28.05,9.37,4.8,3.53,8.93,8.12,11.89,13.23,4.07,6.77,6.24,14.62,6.24,22.61,0,24.35-20.22,44.63-45.08,45.22-.07,0-1.1,0-1.1,0Z"/>
          <path class="cls-18" d="M2169.1,78.21c0,21.23-17.44,38.68-39.06,39.19h-.96c-3.05,0-6.02-.34-8.86-.99-5.16-1.12-9.94-3.28-14.11-6.22-2.48-1.7-4.76-3.67-6.77-5.88-6.38-6.91-10.27-16.09-10.27-26.1,0-21.6,17.98-39.19,40.02-39.19,9.17,0,17.56,3.03,24.29,8.1,1.9,1.4,3.66,2.96,5.27,4.68,1.92,2.04,3.61,4.32,5.02,6.75,2.6,4.34,4.38,9.2,5.09,14.42.23,1.7.35,3.47.35,5.23Z"/>
        </g>
        <path class="cls-4" d="M2158.64,51.81c-22.39,4.94-48.2,18.32-59.31,52.5-6.38-6.91-10.27-16.09-10.27-26.1,0-21.6,17.98-39.19,40.02-39.19,9.17,0,17.56,3.03,24.29,8.1,1.9,1.4,3.66,2.96,5.27,4.68Z"/>
        <path class="cls-10" d="M2169.1,78.21c0,21.23-17.44,38.68-39.06,39.19h-.96c-3.05,0-6.02-.34-8.86-.99,9.17-28.74,30.55-39.58,48.53-43.43.23,1.7.35,3.47.35,5.23Z"/>
      </g>
      <g>
        <g>
          <path class="cls-9" d="M339.33,391.4c-4.54,0-8.85-1.35-12.48-3.91-5.74-3.92-9.19-10.4-9.19-17.31,0-11.7,9.72-21.22,21.67-21.22,4.79,0,9.34,1.52,13.16,4.4,2.25,1.65,4.19,3.81,5.58,6.21,1.91,3.18,2.93,6.86,2.93,10.61,0,11.43-9.49,20.95-21.15,21.22-.03,0-.52,0-.52,0Z"/>
          <path class="cls-4" d="M358.11,370.18c0,9.97-8.19,18.15-18.33,18.39h-.45c-1.43,0-2.83-.16-4.16-.46-2.42-.53-4.66-1.54-6.62-2.92-1.17-.8-2.23-1.72-3.18-2.76-2.99-3.24-4.82-7.55-4.82-12.25,0-10.14,8.44-18.39,18.78-18.39,4.3,0,8.24,1.42,11.4,3.8.89.66,1.72,1.39,2.48,2.2.9.96,1.69,2.02,2.35,3.17,1.22,2.04,2.06,4.32,2.39,6.77.11.8.17,1.63.17,2.46Z"/>
        </g>
        <path class="cls-4" d="M353.2,357.79c-10.51,2.32-22.62,8.6-27.83,24.64-2.99-3.24-4.82-7.55-4.82-12.25,0-10.14,8.44-18.39,18.78-18.39,4.3,0,8.24,1.42,11.4,3.8.89.66,1.72,1.39,2.48,2.2Z"/>
        <path class="cls-10" d="M358.11,370.18c0,9.97-8.19,18.15-18.33,18.39h-.45c-1.43,0-2.83-.16-4.16-.46,4.3-13.49,14.34-18.57,22.77-20.38.11.8.17,1.63.17,2.46Z"/>
      </g>
      <g>
        <g>
          <path class="cls-9" d="M587.14,392.08c-4.54,0-8.85-1.35-12.48-3.91-5.74-3.92-9.19-10.4-9.19-17.31,0-11.7,9.72-21.22,21.67-21.22,4.79,0,9.34,1.52,13.16,4.4,2.25,1.66,4.19,3.81,5.58,6.21,1.91,3.18,2.93,6.86,2.93,10.61,0,11.43-9.49,20.95-21.16,21.22-.03,0-.52,0-.52,0Z"/>
          <path class="cls-4" d="M605.92,370.87c0,9.96-8.19,18.15-18.33,18.39h-.45c-1.43,0-2.83-.16-4.16-.46-2.42-.53-4.66-1.54-6.62-2.92-1.17-.8-2.23-1.72-3.18-2.76-2.99-3.24-4.82-7.55-4.82-12.25,0-10.14,8.44-18.39,18.78-18.39,4.3,0,8.24,1.42,11.4,3.8.89.66,1.72,1.39,2.47,2.2.9.96,1.69,2.03,2.35,3.17,1.22,2.04,2.06,4.32,2.39,6.77.11.8.17,1.63.17,2.46Z"/>
        </g>
        <path class="cls-4" d="M601.01,358.48c-10.51,2.32-22.62,8.6-27.83,24.64-2.99-3.24-4.82-7.55-4.82-12.25,0-10.14,8.44-18.39,18.78-18.39,4.3,0,8.24,1.42,11.4,3.8.89.66,1.72,1.39,2.47,2.2Z"/>
        <path class="cls-10" d="M605.92,370.87c0,9.96-8.19,18.15-18.33,18.39h-.45c-1.43,0-2.83-.16-4.16-.46,4.3-13.49,14.34-18.57,22.77-20.38.11.8.17,1.63.17,2.46Z"/>
      </g>
      <g>
        <g>
          <path class="cls-9" d="M342.22,1742.06c-4.53,0-8.85-1.35-12.48-3.91-5.74-3.92-9.19-10.4-9.19-17.31,0-11.7,9.72-21.22,21.67-21.22,4.79,0,9.34,1.52,13.16,4.4,2.25,1.65,4.19,3.81,5.58,6.21,1.91,3.18,2.93,6.86,2.93,10.61,0,11.43-9.49,20.95-21.15,21.22-.03,0-.52,0-.52,0Z"/>
          <path class="cls-4" d="M360.99,1720.84c0,9.97-8.19,18.15-18.33,18.39h-.45c-1.43,0-2.83-.16-4.16-.46-2.42-.53-4.67-1.54-6.62-2.92-1.17-.8-2.23-1.72-3.18-2.76-2.99-3.24-4.82-7.55-4.82-12.25,0-10.14,8.44-18.39,18.78-18.39,4.3,0,8.24,1.42,11.4,3.8.89.66,1.72,1.39,2.48,2.2.9.96,1.69,2.03,2.35,3.17,1.22,2.04,2.06,4.32,2.39,6.77.11.8.17,1.63.17,2.46Z"/>
        </g>
        <path class="cls-4" d="M356.09,1708.45c-10.51,2.32-22.62,8.6-27.83,24.64-2.99-3.24-4.82-7.55-4.82-12.25,0-10.14,8.44-18.39,18.78-18.39,4.3,0,8.24,1.42,11.4,3.8.89.66,1.72,1.39,2.48,2.2Z"/>
        <path class="cls-10" d="M360.99,1720.84c0,9.97-8.19,18.15-18.33,18.39h-.45c-1.43,0-2.83-.16-4.16-.46,4.3-13.49,14.34-18.57,22.77-20.38.11.8.17,1.63.17,2.46Z"/>
      </g>
      <g>
        <g>
          <path class="cls-9" d="M590.03,1742.75c-4.53,0-8.85-1.35-12.48-3.91-5.74-3.92-9.19-10.4-9.19-17.31,0-11.7,9.72-21.22,21.67-21.22,4.79,0,9.34,1.52,13.16,4.4,2.25,1.65,4.19,3.81,5.58,6.21,1.91,3.18,2.93,6.86,2.93,10.61,0,11.43-9.49,20.95-21.15,21.22-.03,0-.52,0-.52,0Z"/>
          <path class="cls-4" d="M608.81,1721.53c0,9.97-8.19,18.15-18.33,18.39h-.45c-1.43,0-2.83-.16-4.16-.46-2.42-.53-4.67-1.54-6.62-2.92-1.17-.8-2.23-1.72-3.18-2.76-2.99-3.24-4.82-7.55-4.82-12.25,0-10.14,8.44-18.39,18.78-18.39,4.3,0,8.24,1.42,11.4,3.8.89.66,1.72,1.39,2.48,2.2.9.96,1.69,2.03,2.35,3.17,1.22,2.04,2.06,4.32,2.39,6.77.11.8.17,1.63.17,2.46Z"/>
        </g>
        <path class="cls-4" d="M603.9,1709.14c-10.51,2.32-22.62,8.6-27.83,24.64-2.99-3.24-4.82-7.55-4.82-12.25,0-10.14,8.44-18.39,18.78-18.39,4.3,0,8.24,1.42,11.4,3.8.89.66,1.72,1.39,2.48,2.2Z"/>
        <path class="cls-10" d="M608.81,1721.53c0,9.97-8.19,18.15-18.33,18.39h-.45c-1.43,0-2.83-.16-4.16-.46,4.3-13.49,14.33-18.57,22.77-20.38.11.8.17,1.63.17,2.46Z"/>
      </g>
      <g>
        <g>
          <path class="cls-9" d="M2175,1997.57c-1.04-9.41-4.95-18.05-11.32-24.99-9.8-11.02-24.61-16.69-39.56-15.1-25.31,2.68-43.68,25.03-40.94,49.82,1.1,9.93,5.43,19.03,12.54,26.29,4.1,4.29,9.2,7.82,14.72,10.15,7.31,3.23,15.51,4.5,23.62,3.64,24.72-2.62,43.14-24.49,41.05-48.75,0-.07-.12-1.07-.12-1.07Z"/>
          <path class="cls-18" d="M2133.4,2041.39c21.56-2.29,37.39-21.14,35.58-42.24l-.1-.94c-.33-2.97-1-5.83-1.96-8.52-1.7-4.9-4.4-9.32-7.84-13.07-1.99-2.24-4.24-4.24-6.7-5.96-7.7-5.46-17.44-8.26-27.6-7.19-21.93,2.33-37.85,21.72-35.48,43.18.99,8.92,4.97,16.77,10.84,22.77,1.63,1.7,3.4,3.24,5.32,4.63,2.28,1.65,4.77,3.05,7.39,4.16,4.68,2.07,9.82,3.28,15.18,3.4,1.75.05,3.56-.03,5.35-.22Z"/>
        </g>
        <path class="cls-4" d="M2105.48,2034.05c2.6-22.33,13.41-48.9,46.92-63.39-7.7-5.46-17.44-8.26-27.6-7.19-21.93,2.33-37.85,21.72-35.48,43.18.99,8.92,4.97,16.77,10.84,22.77,1.63,1.7,3.4,3.24,5.32,4.63Z"/>
        <path class="cls-10" d="M2133.4,2041.39c21.56-2.29,37.39-21.14,35.58-42.24l-.1-.94c-.33-2.97-1-5.83-1.96-8.52-28.19,12.02-36.89,34-38.87,51.92,1.75.05,3.56-.03,5.35-.22Z"/>
      </g>
      <g>
        <g>
          <path class="cls-9" d="M128.08,72.09c-1.31-9.38-5.46-17.91-12.02-24.67-10.11-10.75-25.08-16.01-39.97-14.02-25.23,3.37-42.95,26.21-39.51,50.91,1.38,9.9,5.97,18.87,13.28,25.94,4.22,4.18,9.42,7.57,15,9.74,7.4,3.03,15.63,4.08,23.72,3,24.64-3.29,42.43-25.66,39.66-49.85,0-.07-.15-1.06-.15-1.06Z"/>
          <path class="cls-18" d="M87.74,117.02c21.49-2.87,36.78-22.15,34.37-43.19l-.13-.93c-.41-2.96-1.16-5.8-2.2-8.46-1.84-4.85-4.67-9.2-8.2-12.85-2.06-2.18-4.36-4.12-6.86-5.78-7.85-5.25-17.67-7.79-27.8-6.43-21.86,2.92-37.22,22.74-34.24,44.12,1.24,8.89,5.44,16.63,11.48,22.47,1.67,1.65,3.49,3.15,5.45,4.48,2.33,1.59,4.86,2.92,7.51,3.96,4.74,1.94,9.91,3.01,15.28,2.99,1.75,0,3.55-.13,5.34-.37Z"/>
        </g>
        <path class="cls-4" d="M59.61,110.44c1.97-22.39,12.02-49.24,45.1-64.64-7.85-5.25-17.67-7.79-27.8-6.43-21.86,2.92-37.22,22.74-34.24,44.12,1.24,8.89,5.44,16.63,11.48,22.47,1.67,1.65,3.49,3.15,5.45,4.48Z"/>
        <path class="cls-10" d="M87.74,117.02c21.49-2.87,36.78-22.15,34.37-43.19l-.13-.93c-.41-2.96-1.16-5.8-2.2-8.46-27.84,12.78-35.91,34.99-37.39,52.96,1.75,0,3.55-.13,5.34-.37Z"/>
      </g>
      <g>
        <g>
          <path class="cls-9" d="M100.35,2044.07c-8.9,3.69-18.51,4.56-27.8,2.5-14.6-3.01-26.87-12.92-32.74-26.47-9.94-22.95,1.04-49.55,24.48-59.28,9.4-3.9,19.62-4.62,29.56-2.09,5.82,1.41,11.46,4.06,16.22,7.64,6.44,4.68,11.58,11.07,14.76,18.43,9.71,22.42-.82,48.82-23.47,58.86-.07.03-1.01.42-1.01.42Z"/>
          <path class="cls-18" d="M119.16,1987.15c8.47,19.55-.63,42.28-20.33,51.01l-.88.37c-2.81,1.16-5.68,1.99-8.55,2.48-5.2.94-10.46.78-15.47-.33-2.97-.61-5.85-1.56-8.58-2.82-8.63-3.92-15.87-10.89-19.86-20.1-8.61-19.89.93-42.95,21.22-51.38,8.44-3.5,17.37-3.92,25.59-1.82,2.31.56,4.55,1.33,6.72,2.29,2.58,1.15,5.04,2.59,7.31,4.3,4.13,3,7.71,6.8,10.43,11.33.89,1.47,1.71,3.06,2.41,4.68Z"/>
        </g>
        <path class="cls-4" d="M99.01,1966.84c-18.64,13.1-37.07,35.29-33.67,71.01-8.63-3.92-15.87-10.89-19.86-20.1-8.61-19.89.93-42.95,21.22-51.38,8.44-3.5,17.37-3.92,25.59-1.82,2.31.56,4.55,1.33,6.72,2.29Z"/>
        <path class="cls-10" d="M119.16,1987.15c8.47,19.55-.63,42.28-20.33,51.01l-.88.37c-2.81,1.16-5.68,1.99-8.55,2.48-3.02-29.96,12.34-48.11,27.36-58.54.89,1.47,1.71,3.06,2.41,4.68Z"/>
      </g>
      <path class="cls-14" d="M279.69,278.62v203.76h24.77s-22.46-154.63-17.64-203.76h-7.12Z"/>
      <path class="cls-14" d="M279.69,1608.62v203.76h24.77s-22.46-154.63-17.64-203.76h-7.12Z"/>
      <path class="cls-4" d="M1729.06,931.4c-78.89-3.2-274.56,5.65-357.78,161.63-4.81-16.78-7.38-34.43-7.38-52.71,0-107.88,89.32-195.37,199.52-195.37,69.01,0,129.8,34.3,165.64,86.45Z"/>
      <path class="cls-5" d="M1888.59,1053.57c-.07-22.35-2.69-45.03-8.09-67.71-.07-.31-.16-.6-.24-.91-.78-3.25-1.63-6.46-2.52-9.65-.26-.94-.52-1.88-.79-2.81-.96-3.34-1.97-6.66-3.04-9.95-.26-.79-.53-1.58-.8-2.36-.99-2.95-2.02-5.88-3.09-8.79-.23-.62-.45-1.25-.68-1.87-1.23-3.25-2.52-6.46-3.86-9.65-.36-.87-.73-1.73-1.1-2.6-1.37-3.18-2.77-6.33-4.24-9.45-.25-.53-.52-1.06-.77-1.59-1.34-2.79-2.72-5.55-4.13-8.28-.39-.75-.77-1.5-1.16-2.24-1.58-3-3.22-5.96-4.9-8.89-.44-.76-.88-1.52-1.33-2.27-1.63-2.78-3.29-5.54-5-8.26-.19-.3-.38-.61-.57-.92-1.86-2.93-3.78-5.8-5.73-8.66-.49-.71-.97-1.42-1.46-2.13-1.95-2.8-3.95-5.57-5.99-8.3-.38-.51-.78-1.01-1.16-1.52-1.94-2.55-3.91-5.07-5.92-7.55-.32-.4-.64-.8-.97-1.2-2.24-2.73-4.53-5.41-6.86-8.06-.43-.49-.85-.97-1.28-1.45-4.95-5.56-10.1-10.93-15.44-16.1-.2-.2-.4-.4-.61-.59-2.76-2.66-5.57-5.27-8.43-7.82-1.55-1.38-2.91-2.59-4.29-3.78.29.24.59.47.88.71-3.75-3.25-7.6-6.39-11.51-9.46-.14-.11-.28-.22-.42-.34-1.65-1.29-3.31-2.56-4.98-3.81-.48-.36-.97-.73-1.46-1.09-1.56-1.16-3.14-2.31-4.72-3.44-.58-.41-1.16-.81-1.73-1.22-1.58-1.11-3.16-2.21-4.76-3.29-.24-.16-.49-.32-.73-.48-3.11-2.08-6.25-4.1-9.43-6.08-.89-.55-1.77-1.11-2.67-1.65-1.27-.77-2.54-1.51-3.82-2.26-1.12-.65-2.23-1.31-3.35-1.95-1.21-.69-2.42-1.37-3.64-2.04-1.25-.69-2.5-1.37-3.76-2.04-1.13-.61-2.26-1.21-3.4-1.8-1.55-.8-3.11-1.59-4.67-2.36-.87-.44-1.74-.88-2.62-1.31-2.4-1.17-4.82-2.31-7.26-3.42-.78-.36-1.58-.7-2.37-1.05-1.77-.79-3.54-1.57-5.32-2.32-.92-.39-1.84-.77-2.76-1.15-1.71-.71-3.43-1.4-5.16-2.08-.89-.35-1.79-.7-2.68-1.04-1.92-.73-3.84-1.44-5.77-2.13-.69-.25-1.38-.5-2.07-.75-5.34-1.88-10.74-3.61-16.19-5.2-.62-.18-1.25-.35-1.88-.53-2.12-.6-4.24-1.19-6.37-1.74-.75-.2-1.5-.39-2.25-.58-2.12-.54-4.24-1.05-6.37-1.54-.66-.15-1.32-.31-1.98-.46-2.64-.59-5.29-1.16-7.96-1.69-.11-.02-.22-.05-.34-.07-2.94-.58-5.88-1.11-8.84-1.61-.19-.03-.38-.06-.57-.09-2.63-.43-5.27-.83-7.92-1.2-.62-.09-1.25-.17-1.87-.25-2.29-.3-4.58-.58-6.88-.83-.65-.07-1.31-.14-1.96-.21-2.47-.26-4.94-.48-7.42-.68-.41-.03-.81-.07-1.22-.1-5.93-.45-11.88-.73-17.87-.84-.41,0-.83,0-1.25-.01-2.52-.04-5.04-.04-7.57-.02-.62,0-1.25.02-1.87.03-2.43.04-4.86.11-7.3.2-.55.02-1.1.04-1.65.06-8.99.4-18.03,1.2-27.08,2.39-.54.07-1.08.15-1.62.23-2.48.34-4.96.71-7.44,1.11-.6.1-1.2.19-1.81.3-2.63.44-5.27.92-7.9,1.43-.34.07-.68.13-1.03.19-3.07.61-6.14,1.24-9.21,1.95-42.22,9.65-80.37,27.43-113.16,51.24-95.75,69.51-145.7,190.52-116.95,311.24.16.65.35,1.29.51,1.94.67,2.73,1.38,5.45,2.12,8.14.34,1.22.67,2.43,1.02,3.64.9,3.12,1.84,6.21,2.84,9.28.36,1.11.74,2.2,1.11,3.3.84,2.49,1.71,4.95,2.61,7.41.36.97.7,1.96,1.07,2.92,1.14,3.01,2.34,5.99,3.57,8.95.48,1.15.97,2.3,1.46,3.44,1.27,2.93,2.56,5.85,3.91,8.72.43.92.89,1.82,1.33,2.73,1.11,2.3,2.25,4.58,3.41,6.84.55,1.06,1.09,2.13,1.65,3.18,1.46,2.75,2.96,5.48,4.51,8.18.61,1.07,1.24,2.13,1.86,3.19,1.32,2.24,2.67,4.47,4.04,6.67.66,1.06,1.32,2.11,1.99,3.16,1.51,2.35,3.05,4.67,4.61,6.96.69,1.01,1.38,2.02,2.08,3.02,1.79,2.56,3.61,5.09,5.47,7.58.64.85,1.29,1.69,1.93,2.53,1.58,2.06,3.18,4.1,4.8,6.12.6.75,1.2,1.51,1.81,2.25,2.04,2.49,4.13,4.93,6.25,7.35.68.77,1.36,1.54,2.05,2.31,2.22,2.48,4.46,4.93,6.75,7.33.33.34.66.67.99,1.02,2.2,2.29,4.45,4.53,6.72,6.75.51.49,1.01.99,1.52,1.48,2.53,2.43,5.1,4.82,7.71,7.16.38.34.76.67,1.14,1.01,1.31,1.17,2.63,2.33,3.96,3.47-.44-.36-.89-.71-1.32-1.07,14.69,12.73,30.59,24.04,47.42,33.82.49.29.99.58,1.48.86,1.68.96,3.37,1.91,5.07,2.85.65.36,1.3.71,1.96,1.06,1.66.9,3.33,1.79,5.01,2.66.6.31,1.2.61,1.8.91,5.38,2.74,10.84,5.32,16.37,7.74.97.42,1.93.85,2.91,1.27,1.44.61,2.89,1.21,4.34,1.8,1.11.45,2.22.9,3.34,1.34,1.39.55,2.79,1.09,4.19,1.63,1.22.46,2.44.91,3.67,1.35,1.34.49,2.67.98,4.02,1.45,1.55.54,3.11,1.06,4.68,1.58,1.88.62,3.77,1.23,5.66,1.82,1.61.5,3.22,1,4.84,1.48,1.22.36,2.45.69,3.67,1.04,1.47.41,2.94.82,4.41,1.21,1.23.33,2.47.64,3.71.95,1.52.38,3.04.75,4.57,1.11,1.18.28,2.37.56,3.56.82,1.76.39,3.53.76,5.3,1.13.95.2,1.9.41,2.86.59,2.65.52,5.31,1,7.98,1.45.93.16,1.86.29,2.79.44,1.86.3,3.71.58,5.58.85,1.1.15,2.21.3,3.31.44,1.74.23,3.48.44,5.22.63,1.1.12,2.21.25,3.32.36,1.85.19,3.71.35,5.57.51.97.08,1.94.17,2.91.24,2.79.21,5.58.39,8.38.52.18,0,.35.01.53.02,2.69.12,5.39.21,8.09.26.92.02,1.84.02,2.76.03,1.97.02,3.95.03,5.93.01,1.02,0,2.04-.02,3.07-.04,1.95-.04,3.9-.09,5.86-.16.96-.04,1.93-.07,2.89-.11,2.29-.11,4.57-.24,6.87-.4.61-.04,1.21-.07,1.82-.12,2.93-.22,5.86-.48,8.79-.78.55-.06,1.11-.13,1.66-.19,2.37-.26,4.74-.53,7.11-.84.89-.12,1.79-.25,2.68-.37,2.09-.29,4.17-.6,6.26-.94.91-.15,1.83-.29,2.74-.45,2.22-.38,4.44-.78,6.66-1.2.72-.14,1.44-.27,2.15-.41,2.97-.59,5.94-1.21,8.91-1.89,25.09-5.73,48.74-14.35,70.69-25.38.67-.34,1.35-.66,2.01-1,.52-.26,1.02-.54,1.53-.81,53.32-27.67,96.3-69.77,124.85-119.93,25.18-44.23,39.15-94.71,39.1-147.03,0-.39,0-.5,0-.62ZM1433.96,857.26c26.13-18.65,56.4-32.58,89.82-40.22.39-.09.78-.16,1.17-.25,3.18-.71,6.36-1.35,9.54-1.93,1.01-.19,2.01-.38,3.02-.55,3.32-.57,6.63-1.07,9.94-1.5,1.09-.14,2.17-.27,3.26-.4,3.31-.39,6.63-.74,9.93-1,.87-.07,1.73-.11,2.59-.17,2.81-.19,5.62-.33,8.43-.43,1.06-.04,2.12-.09,3.18-.11,3.19-.07,6.36-.07,9.53-.02,1.21.02,2.42.05,3.63.09,3.13.09,6.26.23,9.38.44,1.11.08,2.21.18,3.32.27,2.5.2,4.99.44,7.48.72,1.1.12,2.21.23,3.31.37,3.02.37,6.02.82,9.01,1.31,1.29.21,2.58.42,3.87.65,2.93.52,5.84,1.08,8.74,1.7,1.25.27,2.49.56,3.74.85,2.27.52,4.54,1.08,6.79,1.66,1.53.4,3.05.8,4.56,1.22,2.41.67,4.8,1.38,7.18,2.12,1.3.41,2.6.81,3.9,1.24,2.73.9,5.44,1.84,8.14,2.83,1.29.47,2.57.97,3.84,1.46,2.16.83,4.3,1.69,6.43,2.59,1.59.66,3.17,1.35,4.75,2.04,1.43.63,2.84,1.29,4.25,1.94l-84.68,133.4c-.91-.22-1.82-.43-2.73-.62-.61-.13-1.22-.24-1.84-.36-1.05-.2-2.1-.38-3.16-.54-.64-.1-1.29-.2-1.94-.28-1.11-.15-2.23-.26-3.35-.37-.57-.05-1.13-.12-1.7-.16-1.64-.12-3.29-.21-4.94-.24-.47,0-.94,0-1.41,0-1.24,0-2.47,0-3.71.04-.66.02-1.32.06-1.98.1-1.08.06-2.16.14-3.24.23-.68.06-1.35.13-2.03.2-1.14.13-2.28.29-3.42.46-.59.09-1.18.17-1.77.27-1.72.29-3.45.62-5.17,1.02-13.61,3.11-25.8,9.08-36.06,17.1l-136.64-83.17c13.59-16.5,29.35-31.36,47.06-44.01ZM1587.67,1085.08c-9.66,2.23-19.35-.13-26.69-5.59-1.42-1.04-2.75-2.2-3.97-3.46-.84-.87-1.62-1.8-2.36-2.76-.16-.21-.32-.43-.48-.65-.66-.9-1.27-1.84-1.84-2.82-.07-.13-.16-.24-.23-.37-.55-1-1.03-2.05-1.47-3.12-.18-.44-.35-.88-.51-1.32-.29-.78-.53-1.59-.76-2.41-.09-.33-.2-.65-.28-.99-3.54-14.79,4.27-29.59,17.83-35.72,1.94-.87,3.99-1.57,6.14-2.06.36-.08.72-.12,1.08-.19.96-.19,1.92-.36,2.88-.46.49-.05.98-.06,1.47-.09.84-.05,1.69-.08,2.52-.07.53.01,1.05.05,1.58.08.77.05,1.53.13,2.29.24.56.08,1.11.16,1.66.27.69.13,1.38.3,2.06.48.58.15,1.16.29,1.73.48.59.19,1.16.43,1.74.65,2.47.96,4.81,2.2,6.96,3.71,1.65,1.15,3.22,2.41,4.62,3.85,3.82,3.93,6.67,8.86,8.02,14.51,4.01,16.9-6.74,33.87-24,37.79ZM1425.66,1245.25c-4.61-3.58-9.12-7.29-13.47-11.18-.71-.63-1.42-1.27-2.12-1.91-2.34-2.15-4.65-4.33-6.91-6.57-.33-.33-.67-.64-1-.97-2.66-2.66-5.26-5.39-7.8-8.18-.29-.32-.56-.64-.85-.96-2.17-2.41-4.3-4.87-6.38-7.37-.56-.68-1.12-1.36-1.67-2.04-1.89-2.33-3.74-4.69-5.55-7.09-.45-.59-.9-1.17-1.34-1.77-4.46-6.03-8.65-12.28-12.56-18.74-.36-.6-.71-1.21-1.07-1.81-1.58-2.67-3.11-5.37-4.6-8.11-.39-.72-.77-1.43-1.16-2.15-1.62-3.08-3.19-6.19-4.69-9.35-.11-.24-.23-.47-.34-.7-1.68-3.58-3.28-7.21-4.79-10.89-.09-.22-.17-.45-.26-.67-1.34-3.3-2.61-6.65-3.81-10.03-.26-.73-.51-1.46-.76-2.19-1.07-3.1-2.08-6.23-3.03-9.4-.18-.61-.37-1.21-.55-1.81-1.11-3.8-2.13-7.63-3.06-11.52-13.27-55.69-5.75-111.42,17.5-159.48l136.23,82.92c-3.31,13.22-3.61,27.36-.25,41.49.55,2.3,1.21,4.54,1.93,6.75.13.41.26.83.4,1.24.71,2.07,1.49,4.1,2.33,6.09.2.47.41.93.61,1.4.88,1.98,1.81,3.92,2.83,5.81.18.33.37.64.55.96.94,1.69,1.93,3.34,2.96,4.96.25.39.49.79.75,1.18,1.13,1.7,2.32,3.34,3.56,4.95.38.49.76.98,1.15,1.46.62.77,1.25,1.53,1.9,2.28l-84.69,133.38ZM1699.45,1268.5c-19.24,10.27-40.15,18.25-62.5,23.36-.17.04-.35.07-.52.11-3.51.79-7.02,1.49-10.54,2.13-.81.15-1.62.3-2.43.44-3.48.6-6.96,1.12-10.44,1.58-.88.11-1.75.22-2.63.32-3.53.42-7.06.79-10.57,1.06-.55.04-1.09.07-1.64.1-3.21.23-6.41.39-9.61.49-.8.03-1.61.06-2.41.08-3.39.08-6.78.08-10.15.02-.96-.02-1.92-.04-2.88-.07-3.36-.1-6.72-.24-10.06-.47-.79-.05-1.57-.13-2.36-.19-2.96-.23-5.91-.51-8.84-.85-.78-.09-1.55-.16-2.33-.26-3.26-.4-6.51-.89-9.75-1.41-1.01-.16-2.02-.33-3.02-.51-3.18-.56-6.34-1.17-9.49-1.84-.92-.2-1.84-.42-2.76-.63-2.8-.63-5.58-1.31-8.34-2.04-.77-.2-1.54-.39-2.31-.6-3.04-.83-6.05-1.73-9.05-2.68-.99-.31-1.98-.62-2.97-.94-2.99-.98-5.96-2.01-8.91-3.1-.97-.36-1.93-.73-2.89-1.1-2.74-1.05-5.46-2.14-8.16-3.28-.85-.36-1.7-.73-2.55-1.1-1.08-.47-2.15-.99-3.22-1.47l84.94-133.8c.14.03.27.05.41.08.6.12,1.2.24,1.8.35,1.07.2,2.14.38,3.23.55.62.09,1.23.19,1.85.27,1.17.15,2.35.28,3.54.39.5.05,1,.11,1.51.15,1.67.13,3.35.21,5.04.25.34,0,.69,0,1.03,0,1.38.01,2.76,0,4.14-.05.55-.02,1.1-.05,1.65-.08,1.22-.06,2.45-.15,3.67-.26.54-.05,1.08-.1,1.62-.16,1.36-.15,2.72-.34,4.08-.55.37-.06.75-.11,1.12-.17,1.78-.3,3.57-.64,5.35-1.04,14.44-3.3,27.27-9.83,37.91-18.59l136.23,82.93c-20.46,25.3-46.09,46.73-75.8,62.59ZM1806.28,1156.53l-136.65-83.16c1.34-6.01,2.03-12.19,2.07-18.46.04-6.86-.71-13.83-2.36-20.79-.06-.23-.14-.46-.2-.69-.48-1.96-1.04-3.89-1.65-5.79-.18-.56-.35-1.12-.54-1.67-.67-1.97-1.42-3.91-2.22-5.81-.24-.56-.49-1.12-.74-1.68-.85-1.9-1.74-3.77-2.72-5.59-.22-.41-.46-.8-.68-1.2-.89-1.59-1.82-3.15-2.8-4.68-.28-.44-.55-.89-.84-1.33-1.11-1.67-2.28-3.28-3.5-4.86-.4-.52-.8-1.04-1.22-1.55-.13-.16-.25-.32-.37-.48l84.94-133.8c3.86,3.05,7.65,6.2,11.33,9.47.95.85,1.91,1.7,2.85,2.57,1.97,1.81,3.9,3.65,5.81,5.52.66.65,1.34,1.29,2,1.95,2.52,2.52,4.98,5.1,7.39,7.74.59.64,1.15,1.31,1.73,1.96,1.84,2.06,3.66,4.15,5.43,6.27.76.91,1.51,1.83,2.25,2.75,1.64,2.02,3.25,4.08,4.83,6.16.65.85,1.3,1.7,1.94,2.56,4.33,5.86,8.4,11.94,12.2,18.21.52.86,1.02,1.74,1.53,2.6,1.4,2.37,2.75,4.76,4.07,7.18.52.95,1.03,1.9,1.54,2.87,1.42,2.71,2.8,5.45,4.12,8.22.28.58.57,1.15.85,1.74,1.61,3.43,3.14,6.91,4.59,10.44.22.54.43,1.1.65,1.65,1.19,2.95,2.33,5.94,3.4,8.96.34.95.67,1.91,1,2.88.96,2.81,1.88,5.65,2.74,8.52.26.85.53,1.7.78,2.56,1.08,3.72,2.09,7.47,3,11.27,13.09,54.92,5.95,109.89-16.55,157.49Z"/>
      <path class="cls-9" d="M1762.91,1039.53v.79c0,107.91-89.32,195.37-199.49,195.37-46.33,0-88.96-15.46-122.84-41.41,42.8-133.77,249.63-152.36,322.33-154.75Z"/>
      <g>
        <path class="cls-17" d="M1562.72,1097.78l-114.47,180.32-2.05-1.26-48.25-29.37.19-.31s114.28-180.01,114.28-180.01l1.8,1.1,34.39,20.95,14.12,8.58Z"/>
        <path class="cls-4" d="M1512.42,1067.15l1.8,1.1c-26.28,43.2-78.12,133.2-78.12,171.31,0,28.4-20.12,20.33-37.95,7.6,0-.03,114.28-180.01,114.28-180.01Z"/>
        <path class="cls-5" d="M1562.72,1097.78l-114.47,180.32-2.05-1.26c-2.86-4.37-4.49-10.24-4.49-18.06,0-51.77,86.81-148,106.9-169.58l14.12,8.58Z"/>
        <path class="cls-17" d="M1820.21,1151l-14.31,22.56-14.57,22.93s-2.37,3.77-2.37,3.77l-2.6-1.6-169.01-102.88-12.54-7.63,31.25-49.23,11.9,7.26,167.15,101.72,5.1,3.11Z"/>
        <path class="cls-1" d="M1815.11,1147.89c-2.05,1.79-4.59,3.05-7.67,3.64-28.07,5.47-171.64-85.86-171.64-85.86l12.16-19.51,167.15,101.72Z"/>
        <path class="cls-4" d="M1791.34,1196.49c-1.6.72-3.27,1.45-4.97,2.17l-169.01-102.88c.03-5.78.71-11.28,2.25-16.43,1.44-4.93,121.27,81.33,182.23,93.27,1.51.28,2.86.6,4.07.94,16.88,4.71,6.26,13.51-14.57,22.93Z"/>
        <polygon class="cls-17" points="1740.71 817.37 1629.55 992.48 1626.24 997.69 1575.97 967.09 1580.37 960.18 1687.46 791.48 1690.44 786.77 1723.32 806.78 1740.71 817.37"/>
        <path class="cls-4" d="M1695.15,806.03c0,24.35-97.05,156.64-97.05,156.64l-15.21,8.45-2.53-10.93,107.09-168.7c4.62,3.64,7.7,8.39,7.7,14.55Z"/>
        <path class="cls-5" d="M1740.71,817.37l-111.16,175.11c-6.19-2.2-12.38-5.15-18.61-8.98,0,0,101.57-137.41,101.57-167.25,0-6.94,4.27-9.55,10.81-9.46l17.39,10.59Z"/>
        <polygon class="cls-17" points="1533.88 976.7 1529.58 983.46 1518.99 1000.14 1502.6 1025.93 1318.45 913.84 1325.89 902.13 1331.6 893.14 1349.73 864.62 1533.88 976.7"/>
        <path class="cls-5" d="M1518.99,1000.14l-16.39,25.79-184.15-112.09,7.44-11.72c39.11,14.17,162.88,61.04,193.1,98.02Z"/>
        <path class="cls-4" d="M1533.88,976.7l-4.3,6.75c-3.69-.22-8.15-2.48-13.57-7.79-24.12-23.62-144.21-68.05-184.41-82.53l18.13-28.53,184.15,112.09Z"/>
        <path class="cls-15" d="M1267.68,1101.35c-38.61-162.05,64.61-324.65,230.1-362.46,165.49-37.81,331.54,63.27,370.15,225.32,38.61,162.05-64.61,324.65-230.09,362.46-165.49,37.81-331.54-63.27-370.16-225.32ZM1810.26,977.38c-31.19-130.91-165.34-212.57-299.03-182.02-133.69,30.55-217.08,161.9-185.89,292.82,31.19,130.91,165.34,212.57,299.03,182.02,133.69-30.55,217.08-161.9,185.88-292.82Z"/>
        <path class="cls-15" d="M1656.75,1012.46c-11.42-48.03-60.67-78-109.72-66.79-49.05,11.22-79.63,59.41-68.21,107.44,11.45,48.03,60.67,77.97,109.72,66.79,49.05-11.22,79.66-59.41,68.21-107.44ZM1536.51,1039.91c-4.04-16.9,6.74-33.83,24-37.79,11.48-2.61,22.97,1.16,30.57,8.98,3.82,3.93,6.67,8.86,8.02,14.51,4.01,16.9-6.74,33.87-24,37.79-9.66,2.23-19.35-.12-26.69-5.59-5.81-4.24-10.14-10.46-11.9-17.91Z"/>
        <path class="cls-3" d="M1772.44,807.22c-71.96-59.91-171-86.89-269.84-64.31-165.51,37.82-268.72,200.43-230.12,362.47,15.14,63.49,49.82,117.62,96.37,157.7-48.99-40.43-85.53-96.07-101.19-161.73-38.59-162.07,64.61-324.68,230.12-362.47,101.06-23.09,202.31,5.62,274.65,68.33Z"/>
        <path class="cls-3" d="M1629.19,1274.24c-81.14,18.54-162.46-4.27-220.82-54.35,57.97,47.25,137.09,68.33,216.01,50.3,133.69-30.54,217.07-161.88,185.88-292.82-12.13-50.89-39.85-94.37-77.03-126.67,39.62,32.67,69.2,77.66,81.84,130.72,31.18,130.91-52.2,262.25-185.88,292.82Z"/>
        <path class="cls-12" d="M1363.15,1258.34c71.96,59.91,171,86.89,269.84,64.31,165.51-37.82,268.72-200.43,230.12-362.47-15.14-63.49-49.82-117.62-96.37-157.7,48.99,40.43,85.53,96.07,101.19,161.73,38.6,162.07-64.61,324.68-230.12,362.47-101.06,23.09-202.31-5.62-274.65-68.33Z"/>
        <path class="cls-13" d="M1506.4,791.32c81.14-18.54,162.46,4.27,220.82,54.35-57.97-47.25-137.09-68.33-216.01-50.3-133.69,30.54-217.07,161.88-185.88,292.82,12.13,50.89,39.85,94.37,77.03,126.67-39.62-32.67-69.2-77.66-81.84-130.72-31.18-130.91,52.2-262.25,185.88-292.82Z"/>
        <path class="cls-3" d="M1628.97,966.43c-21.05-16.12-49.12-23.15-77.13-16.74-49.05,11.21-79.63,59.41-68.21,107.44,4.36,18.32,14.21,33.99,27.46,45.77-15.66-12.13-27.4-29.31-32.27-49.79-11.42-48.03,19.15-96.23,68.21-107.44,30.19-6.91,60.47,1.79,81.94,20.77Z"/>
        <g class="cls-11">
          <path class="cls-2" d="M1578.83,1066.65c-11.39,2.58-22.81-1.13-30.41-8.83,7.35,5.47,17.04,7.82,26.69,5.59,17.26-3.93,28.01-20.89,24-37.79-1.35-5.65-4.2-10.59-8.02-14.51,5.71,4.21,9.98,10.37,11.74,17.75,4.04,16.9-6.74,33.83-24,37.79Z"/>
        </g>
        <path class="cls-12" d="M1506.62,1099.12c21.05,16.12,49.12,23.15,77.13,16.74,49.05-11.22,79.63-59.41,68.21-107.44-4.36-18.31-14.21-33.99-27.46-45.77,15.66,12.13,27.4,29.31,32.27,49.79,11.42,48.03-19.15,96.23-68.21,107.44-30.19,6.91-60.47-1.79-81.94-20.77Z"/>
        <path class="cls-12" d="M1556.76,998.9c11.39-2.58,22.81,1.13,30.41,8.83-7.35-5.47-17.04-7.82-26.69-5.59-17.26,3.93-28.01,20.89-24,37.79,1.35,5.65,4.2,10.59,8.02,14.51-5.71-4.21-9.98-10.37-11.74-17.75-4.04-16.9,6.74-33.83,24-37.79Z"/>
        <path class="cls-4" d="M1531.92,1044.31l-4.33,2.42c1-1.57,1.54-2.42,1.54-2.42h2.79Z"/>
      </g>
      <g>
        <g>
          <path class="cls-9" d="M2129.09,123.42c-9.66,0-18.86-2.88-26.59-8.33-12.24-8.36-19.59-22.17-19.59-36.89,0-24.93,20.71-45.22,46.18-45.22,10.2,0,19.9,3.24,28.05,9.37,4.8,3.53,8.93,8.12,11.89,13.23,4.07,6.77,6.24,14.62,6.24,22.61,0,24.35-20.22,44.63-45.08,45.22-.07,0-1.1,0-1.1,0Z"/>
          <path class="cls-18" d="M2169.1,78.21c0,21.23-17.44,38.68-39.06,39.19h-.96c-3.05,0-6.02-.34-8.86-.99-5.16-1.12-9.94-3.28-14.11-6.22-2.48-1.7-4.76-3.67-6.77-5.88-6.38-6.91-10.27-16.09-10.27-26.1,0-21.6,17.98-39.19,40.02-39.19,9.17,0,17.56,3.03,24.29,8.1,1.9,1.4,3.66,2.96,5.27,4.68,1.92,2.04,3.61,4.32,5.02,6.75,2.6,4.34,4.38,9.2,5.09,14.42.23,1.7.35,3.47.35,5.23Z"/>
        </g>
        <path class="cls-4" d="M2158.64,51.81c-22.39,4.94-48.2,18.32-59.31,52.5-6.38-6.91-10.27-16.09-10.27-26.1,0-21.6,17.98-39.19,40.02-39.19,9.17,0,17.56,3.03,24.29,8.1,1.9,1.4,3.66,2.96,5.27,4.68Z"/>
        <path class="cls-10" d="M2169.1,78.21c0,21.23-17.44,38.68-39.06,39.19h-.96c-3.05,0-6.02-.34-8.86-.99,9.17-28.74,30.55-39.58,48.53-43.43.23,1.7.35,3.47.35,5.23Z"/>
      </g>
    </g>
  </g>
</svg>